<?xml version="1.0" encoding="us-ascii" standalone="no"?><svg xmlns="http://www.w3.org/2000/svg" xmlns:xlink="http://www.w3.org/1999/xlink" contentStyleType="text/css" height="1086px" preserveAspectRatio="none" style="width:1181px;height:1086px;background:#FFFFFF;" version="1.1" viewBox="0 0 1181 1086" width="1181px" zoomAndPan="magnify"><defs/><g><!--cluster H.U_1 Registrarme en la BD mediante Postman--><g id="cluster_H.U_1 Registrarme en la BD mediante Postman"><rect fill="none" height="243" rx="2.5" ry="2.5" style="stroke:#181818;stroke-width:1.0;" width="341" x="834" y="325.86"/><text fill="#000000" font-family="sans-serif" font-size="14" font-weight="bold" lengthAdjust="spacing" textLength="325" x="842" y="342.9674">H.U_1 Registrarme en la BD mediante Postman</text></g><!--cluster H.U_2 Iniciar sesi?n en cualquier momento--><g id="cluster_H.U_2 Iniciar sesi&#243;n en cualquier momento"><rect fill="none" height="248" rx="2.5" ry="2.5" style="stroke:#181818;stroke-width:1.0;" width="315" x="847.5" y="592.86"/><text fill="#000000" font-family="sans-serif" font-size="14" font-weight="bold" lengthAdjust="spacing" textLength="299" x="855.5" y="609.9674">H.U_2 Iniciar sesi&#243;n en cualquier momento</text></g><!--cluster H.U_3 Seleccionar una acci?n determinada--><g id="cluster_H.U_3 Seleccionar una acci&#243;n determinada"><rect fill="none" height="416" rx="2.5" ry="2.5" style="stroke:#181818;stroke-width:1.0;" width="315" x="97" y="218.86"/><text fill="#000000" font-family="sans-serif" font-size="14" font-weight="bold" lengthAdjust="spacing" textLength="299" x="105" y="235.9674">H.U_3 Seleccionar una acci&#243;n determinada</text></g><!--cluster H.U_4 Vender acciones de mi cartera--><g id="cluster_H.U_4 Vender acciones de mi cartera"><rect fill="none" height="156" rx="2.5" ry="2.5" style="stroke:#181818;stroke-width:1.0;" width="274" x="117.5" y="658.86"/><text fill="#000000" font-family="sans-serif" font-size="14" font-weight="bold" lengthAdjust="spacing" textLength="258" x="125.5" y="675.9674">H.U_4 Vender acciones de mi cartera</text></g><!--cluster H.U_5 Tener acceso a una interfaz--><g id="cluster_H.U_5 Tener acceso a una interfaz"><rect fill="none" height="93" rx="2.5" ry="2.5" style="stroke:#181818;stroke-width:1.0;" width="254" x="128" y="838.86"/><text fill="#000000" font-family="sans-serif" font-size="14" font-weight="bold" lengthAdjust="spacing" textLength="238" x="136" y="855.9674">H.U_5 Tener acceso a una interfaz</text></g><g id="elem_Registrarme"><ellipse cx="1004.4511" cy="379.8448" fill="#F1F1F1" rx="67.4511" ry="16.4848" style="stroke:#181818;stroke-width:0.5;"/><text fill="#000000" font-family="sans-serif" font-size="14" lengthAdjust="spacing" textLength="77" x="962.9511" y="384.6485">Registrarme</text></g><g id="elem_Registro exitoso"><ellipse cx="1004.32" cy="449.724" fill="#F1F1F1" rx="77.32" ry="17.864" style="stroke:#181818;stroke-width:0.5;"/><text fill="#000000" font-family="sans-serif" font-size="14" lengthAdjust="spacing" textLength="101" x="950.82" y="454.5277">Registro exitoso</text></g><g id="elem_Nombre de usuario existente"><ellipse cx="1004.6919" cy="527.6984" fill="#F1F1F1" rx="109.6919" ry="24.3384" style="stroke:#181818;stroke-width:0.5;"/><text fill="#000000" font-family="sans-serif" font-size="14" lengthAdjust="spacing" textLength="180" x="914.6919" y="531.4953">Nombre de usuario existente</text></g><g id="elem_Iniciar Sesi&#243;n"><ellipse cx="1004.4559" cy="730.0512" fill="#F1F1F1" rx="71.4559" ry="16.6912" style="stroke:#181818;stroke-width:0.5;"/><text fill="#000000" font-family="sans-serif" font-size="14" lengthAdjust="spacing" textLength="84" x="959.4559" y="734.8549">Iniciar Sesi&#243;n</text></g><g id="elem_Inicio de sesi&#243;n exitoso"><ellipse cx="1004.4412" cy="802.6482" fill="#F1F1F1" rx="94.4412" ry="21.2882" style="stroke:#181818;stroke-width:0.5;"/><text fill="#000000" font-family="sans-serif" font-size="14" lengthAdjust="spacing" textLength="145" x="929.0517" y="807.4196">Inicio de sesi&#243;n exitoso</text></g><g id="elem_Datos de ingreso no v&#225;lidos"><ellipse cx="1004.3959" cy="653.8392" fill="#F1F1F1" rx="107.8959" ry="23.9792" style="stroke:#181818;stroke-width:0.5;"/><text fill="#000000" font-family="sans-serif" font-size="14" lengthAdjust="spacing" textLength="176" x="916.3959" y="657.6361">Datos de ingreso no v&#225;lidos</text></g><g id="elem_Agregar acci&#243;n"><ellipse cx="254.5411" cy="449.8682" fill="#F1F1F1" rx="75.5411" ry="17.5082" style="stroke:#181818;stroke-width:0.5;"/><text fill="#000000" font-family="sans-serif" font-size="14" lengthAdjust="spacing" textLength="96" x="203.5411" y="454.6719">Agregar acci&#243;n</text></g><g id="elem_Acci&#243;n agregada correctamente"><ellipse cx="254.6883" cy="282.6977" fill="#F1F1F1" rx="119.6883" ry="26.3377" style="stroke:#181818;stroke-width:0.5;"/><text fill="#000000" font-family="sans-serif" font-size="14" lengthAdjust="spacing" textLength="202" x="153.6883" y="286.4945">Acci&#243;n agregada correctamente</text></g><g id="elem_Eliminar acci&#243;n"><ellipse cx="254.6904" cy="519.7981" fill="#F1F1F1" rx="75.1904" ry="17.4381" style="stroke:#181818;stroke-width:0.5;"/><text fill="#000000" font-family="sans-serif" font-size="14" lengthAdjust="spacing" textLength="95" x="204.1904" y="524.6018">Eliminar acci&#243;n</text></g><g id="elem_Acci&#243;n eliminada correctamente"><ellipse cx="254.73" cy="371.106" fill="#F1F1F1" rx="119.23" ry="26.246" style="stroke:#181818;stroke-width:0.5;"/><text fill="#000000" font-family="sans-serif" font-size="14" lengthAdjust="spacing" textLength="201" x="154.23" y="374.9029">Acci&#243;n eliminada correctamente</text></g><g id="elem_Eliminar acci&#243;n inexistente"><ellipse cx="254.4402" cy="595.948" fill="#F1F1F1" rx="103.4402" ry="23.088" style="stroke:#181818;stroke-width:0.5;"/><text fill="#000000" font-family="sans-serif" font-size="14" lengthAdjust="spacing" textLength="166" x="171.3058" y="599.7963">Eliminar acci&#243;n inexistente</text></g><g id="elem_Vender acci&#243;n"><ellipse cx="254.3058" cy="782.0212" fill="#F1F1F1" rx="73.8058" ry="17.1612" style="stroke:#181818;stroke-width:0.5;"/><text fill="#000000" font-family="sans-serif" font-size="14" lengthAdjust="spacing" textLength="91" x="205.8058" y="786.8249">Vender acci&#243;n</text></g><g id="elem_Venta exitosa"><ellipse cx="254.2856" cy="712.6171" fill="#F1F1F1" rx="71.7856" ry="16.7571" style="stroke:#181818;stroke-width:0.5;"/><text fill="#000000" font-family="sans-serif" font-size="14" lengthAdjust="spacing" textLength="85" x="208.7856" y="717.4208">Venta exitosa</text></g><g id="elem_Visualizar acciones"><ellipse cx="254.4261" cy="895.6452" fill="#F1F1F1" rx="84.4261" ry="19.2852" style="stroke:#181818;stroke-width:0.5;"/><text fill="#000000" font-family="sans-serif" font-size="14" lengthAdjust="spacing" textLength="120" x="191.4261" y="900.4489">Visualizar acciones</text></g><!--entity c--><g id="elem_c"><ellipse cx="28" cy="564.86" fill="#F1F1F1" rx="8" ry="8" style="stroke:#181818;stroke-width:0.5;"/><path d="M28,572.86 L28,599.86 M15,580.86 L41,580.86 M28,599.86 L15,614.86 M28,599.86 L41,614.86 " fill="none" style="stroke:#181818;stroke-width:0.5;"/><text fill="#000000" font-family="sans-serif" font-size="14" lengthAdjust="spacing" textLength="44" x="6" y="631.4674">Cliente</text></g><!--entity s--><g id="elem_s"><ellipse cx="662" cy="528.86" fill="#F1F1F1" rx="8" ry="8" style="stroke:#181818;stroke-width:0.5;"/><path d="M662,536.86 L662,563.86 M649,544.86 L675,544.86 M662,563.86 L649,578.86 M662,563.86 L675,578.86 " fill="none" style="stroke:#181818;stroke-width:0.5;"/><text fill="#000000" font-family="sans-serif" font-size="14" lengthAdjust="spacing" textLength="50" x="637" y="595.4674">Sistema</text></g><!--link c to Registrarme--><g id="link_c_Registrarme"><path d="M29.53,556.12 C31.59,471.94 41.5,280.02 89,239.86 C365.57,6 859.378,289.5864 974.338,361.2364 " fill="none" id="c-to-Registrarme" style="stroke:#181818;stroke-width:1.0;"/><polygon fill="#181818" points="979.43,364.41,973.9078,356.2549,975.1867,361.7653,969.6763,363.0442,979.43,364.41" style="stroke:#181818;stroke-width:1.0;"/></g><!--link Registrarme to s--><g id="link_Registrarme_s"><path d="M941.6,386.13 C906.78,391.02 863,399.5 826,413.86 C772.99,434.43 758.17,441.63 717,480.86 C705.09,492.2 697.6013,501.5567 688.8613,514.9367 " fill="none" id="Registrarme-to-s" style="stroke:#181818;stroke-width:1.0;"/><polygon fill="#181818" points="685.58,519.96,693.8508,514.6126,688.3144,515.7739,687.1531,510.2376,685.58,519.96" style="stroke:#181818;stroke-width:1.0;"/><text fill="#000000" font-family="sans-serif" font-size="13" lengthAdjust="spacing" textLength="99" x="718" y="413.8883">Datos de registro</text></g><!--link s to Registro exitoso--><g id="link_s_Registro exitoso"><path d="M687.02,542.58 C696.14,536.49 706.79,529.91 717,524.86 C788.32,489.58 872.1874,470.5702 932.0574,460.2402 " fill="none" id="s-to-Registro exitoso" style="stroke:#181818;stroke-width:1.0;"/><polygon fill="#181818" points="937.97,459.22,928.4209,456.8085,933.0428,460.0701,929.7812,464.692,937.97,459.22" style="stroke:#181818;stroke-width:1.0;"/></g><!--link s to Nombre de usuario existente--><g id="link_s_Nombre de usuario existente"><path d="M687.21,557.58 C731.58,553.41 822.2364,544.8918 897.0964,537.8518 " fill="none" id="s-to-Nombre de usuario existente" style="stroke:#181818;stroke-width:1.0;"/><polygon fill="#181818" points="903.07,537.29,893.735,534.1502,898.092,537.7581,894.4841,542.1151,903.07,537.29" style="stroke:#181818;stroke-width:1.0;"/></g><!--link c to Iniciar Sesi?n--><g id="link_c_Iniciar Sesi&#243;n"><path d="M29.97,635.51 C32.87,716.07 44.3,894.43 89,931.86 C265.88,1079.95 391.39,980.89 607,898.86 C713.87,858.2 719.43,805.29 826,763.86 C861.97,749.87 898.4112,742.3246 932.7412,737.3846 " fill="none" id="c-to-Iniciar Sesi&#243;n" style="stroke:#181818;stroke-width:1.0;"/><polygon fill="#181818" points="938.68,736.53,929.202,733.8527,933.731,737.2422,930.3415,741.7711,938.68,736.53" style="stroke:#181818;stroke-width:1.0;"/></g><!--link Iniciar Sesi?n to s--><g id="link_Iniciar Sesi&#243;n_s"><path d="M939.56,722.76 C905.1,717.58 862.32,708.92 826,694.86 C773.19,674.4 759.37,666.44 717,628.86 C706.08,619.16 699.3802,611.8172 690.7402,600.4472 " fill="none" id="Iniciar Sesi&#243;n-to-s" style="stroke:#181818;stroke-width:1.0;"/><polygon fill="#181818" points="687.11,595.67,689.3705,605.2559,690.1352,599.651,695.7401,600.4157,687.11,595.67" style="stroke:#181818;stroke-width:1.0;"/><text fill="#000000" font-family="sans-serif" font-size="13" lengthAdjust="spacing" textLength="75" x="730" y="624.8883">Credenciales</text></g><!--link s to Inicio de sesi?n exitoso--><g id="link_s_Inicio de sesi&#243;n exitoso"><path d="M670.78,599.44 C678.38,629.69 692.47,670.96 717,699.86 C766.69,758.38 846.3135,782.6523 911.0135,793.5623 " fill="none" id="s-to-Inicio de sesi&#243;n exitoso" style="stroke:#181818;stroke-width:1.0;"/><polygon fill="#181818" points="916.93,794.56,908.7204,789.1192,911.9996,793.7286,907.3902,797.0078,916.93,794.56" style="stroke:#181818;stroke-width:1.0;"/></g><!--link s to Datos de ingreso no v?lidos--><g id="link_s_Datos de ingreso no v&#225;lidos"><path d="M687.21,566.54 C738.42,580.68 853.4564,612.4333 930.0664,633.5833 " fill="none" id="s-to-Datos de ingreso no v&#225;lidos" style="stroke:#181818;stroke-width:1.0;"/><polygon fill="#181818" points="935.85,635.18,928.239,628.9292,931.0303,633.8494,926.1101,636.6407,935.85,635.18" style="stroke:#181818;stroke-width:1.0;"/></g><!--link c to Agregar acci?n--><g id="link_c_Agregar acci&#243;n"><path d="M40.88,556.24 C50.16,532.03 65.5,502.44 89,484.86 C114.83,465.52 143.0653,457.1725 173.5753,453.0025 " fill="none" id="c-to-Agregar acci&#243;n" style="stroke:#181818;stroke-width:1.0;"/><polygon fill="#181818" points="179.52,452.19,170.0612,449.4456,174.5661,452.8671,171.1446,457.3719,179.52,452.19" style="stroke:#181818;stroke-width:1.0;"/></g><!--link Agregar acci?n to s--><g id="link_Agregar acci&#243;n_s"><path d="M330.19,450.86 C403.99,454.53 518.37,467.57 607,510.86 C617.92,516.19 623.888,520.2796 632.528,528.4796 " fill="none" id="Agregar acci&#243;n-to-s" style="stroke:#181818;stroke-width:1.0;"/><polygon fill="#181818" points="636.88,532.61,633.1056,523.5131,633.2533,529.168,627.5984,529.3158,636.88,532.61" style="stroke:#181818;stroke-width:1.0;"/><text fill="#000000" font-family="sans-serif" font-size="13" lengthAdjust="spacing" textLength="121" x="457" y="456.8883">Detalles de la acci&#243;n</text></g><!--link s to Acci?n agregada correctamente--><g id="link_s_Acci&#243;n agregada correctamente"><path d="M660.22,520.02 C657.21,478.35 646,413.83 607,375.86 C545.37,315.86 455.7478,294.0007 379.7978,286.1007 " fill="none" id="s-to-Acci&#243;n agregada correctamente" style="stroke:#181818;stroke-width:1.0;"/><polygon fill="#181818" points="373.83,285.48,382.3679,290.3897,378.8032,285.9973,383.1955,282.4326,373.83,285.48" style="stroke:#181818;stroke-width:1.0;"/></g><!--link c to Eliminar acci?n--><g id="link_c_Eliminar acci&#243;n"><path d="M50.03,578.48 C61.03,570.2 75.08,560.81 89,554.86 C120.14,541.52 150.9149,534.0957 181.7349,528.8557 " fill="none" id="c-to-Eliminar acci&#243;n" style="stroke:#181818;stroke-width:1.0;"/><polygon fill="#181818" points="187.65,527.85,178.1069,525.4151,182.7207,528.6881,179.4478,533.3019,187.65,527.85" style="stroke:#181818;stroke-width:1.0;"/></g><!--link Eliminar acci?n to s--><g id="link_Eliminar acci&#243;n_s"><path d="M323.83,526.6 C416.15,535.7 570.159,550.8911 630.789,556.8711 " fill="none" id="Eliminar acci&#243;n-to-s" style="stroke:#181818;stroke-width:1.0;"/><polygon fill="#181818" points="636.76,557.46,628.1961,552.5959,631.7841,556.9692,627.4108,560.5573,636.76,557.46" style="stroke:#181818;stroke-width:1.0;"/><text fill="#000000" font-family="sans-serif" font-size="13" lengthAdjust="spacing" textLength="177" x="429" y="533.8883">Selecci&#243;n de acci&#243;n a eliminar</text></g><!--link s to Acci?n eliminada correctamente--><g id="link_s_Acci&#243;n eliminada correctamente"><path d="M654.3,520.26 C647.37,491.87 633.64,455.03 607,433.86 C540.75,381.2 451.2179,366.9389 376.4579,364.9589 " fill="none" id="s-to-Acci&#243;n eliminada correctamente" style="stroke:#181818;stroke-width:1.0;"/><polygon fill="#181818" points="370.46,364.8,379.3509,369.0369,375.4582,364.9324,379.5627,361.0397,370.46,364.8" style="stroke:#181818;stroke-width:1.0;"/></g><!--link c to Eliminar acci?n inexistente--><g id="link_c_Eliminar acci&#243;n inexistente"><path d="M50.12,595.86 C73.48,595.86 106.84,595.86 144.75,595.86 " fill="none" id="c-to-Eliminar acci&#243;n inexistente" style="stroke:#181818;stroke-width:1.0;"/><polygon fill="#181818" points="150.75,595.86,141.75,591.86,145.75,595.86,141.75,599.86,150.75,595.86" style="stroke:#181818;stroke-width:1.0;"/></g><!--link Eliminar acci?n inexistente to s--><g id="link_Eliminar acci&#243;n inexistente_s"><path d="M347.12,606.3 C419.06,611.65 521.08,612.9 607,589.86 C617.36,587.08 622.6933,584.9404 631.6533,579.6504 " fill="none" id="Eliminar acci&#243;n inexistente-to-s" style="stroke:#181818;stroke-width:1.0;"/><polygon fill="#181818" points="636.82,576.6,627.0363,577.7312,632.5144,579.142,631.1036,584.6201,636.82,576.6" style="stroke:#181818;stroke-width:1.0;"/><text fill="#000000" font-family="sans-serif" font-size="13" lengthAdjust="spacing" textLength="126" x="454.5" y="585.8883">Acci&#243;n no encontrada</text></g><!--link c to Vender acci?n--><g id="link_c_Vender acci&#243;n"><path d="M34.24,635.66 C40.93,670.2 55.91,718.92 89,746.86 C114.21,768.14 143.2632,776.7311 174.5032,780.5011 " fill="none" id="c-to-Vender acci&#243;n" style="stroke:#181818;stroke-width:1.0;"/><polygon fill="#181818" points="180.46,781.22,172.0041,776.1705,175.496,780.621,171.0456,784.1129,180.46,781.22" style="stroke:#181818;stroke-width:1.0;"/></g><!--link Vender acci?n to s--><g id="link_Vender acci&#243;n_s"><path d="M324.92,787.26 C402.78,789.43 528.42,780.76 607,712.86 C639.93,684.4 651.9308,640.4996 656.9408,605.4596 " fill="none" id="Vender acci&#243;n-to-s" style="stroke:#181818;stroke-width:1.0;"/><polygon fill="#181818" points="657.79,599.52,652.5564,607.8632,657.0823,604.4697,660.4759,608.9956,657.79,599.52" style="stroke:#181818;stroke-width:1.0;"/><text fill="#000000" font-family="sans-serif" font-size="13" lengthAdjust="spacing" textLength="127" x="454" y="708.8883">Confirmaci&#243;n de venta</text></g><!--link s to Venta exitosa--><g id="link_s_Venta exitosa"><path d="M636.8,592.12 C628.3,601.58 618.08,611.18 607,617.86 C516.73,672.28 400.8659,695.3061 326.9059,705.3061 " fill="none" id="s-to-Venta exitosa" style="stroke:#181818;stroke-width:1.0;"/><polygon fill="#181818" points="320.96,706.11,330.4148,708.868,325.9149,705.4401,329.3429,700.9402,320.96,706.11" style="stroke:#181818;stroke-width:1.0;"/></g><!--link c to Visualizar acciones--><g id="link_c_Visualizar acciones"><path d="M30.28,635.48 C33.8,683.09 46.2,763.03 89,814.86 C116.67,848.36 155.9149,867.2418 191.8349,879.3618 " fill="none" id="c-to-Visualizar acciones" style="stroke:#181818;stroke-width:1.0;"/><polygon fill="#181818" points="197.52,881.28,190.2712,874.6126,192.7824,879.6815,187.7135,882.1927,197.52,881.28" style="stroke:#181818;stroke-width:1.0;"/></g><!--link Visualizar acciones to s--><g id="link_Visualizar acciones_s"><path d="M337.89,899.02 C417.87,897.38 537.12,881.67 607,809.86 C635.72,780.34 650.5678,668.2997 656.8978,605.5497 " fill="none" id="Visualizar acciones-to-s" style="stroke:#181818;stroke-width:1.0;"/><polygon fill="#181818" points="657.5,599.58,652.6169,608.1331,656.9982,604.5548,660.5765,608.936,657.5,599.58" style="stroke:#181818;stroke-width:1.0;"/><text fill="#000000" font-family="sans-serif" font-size="13" lengthAdjust="spacing" textLength="105" x="465" y="805.8883">Acciones vigentes</text></g><!--SRC=[bPDDRXH138NtVGehAsOH921iM22510asKKGWMsIwF8sbAbjKLO-Y80x36JX2BeQh-czwPYJ4ibtFzlTijwTjXgmGkVkUmN6aDhDAqs2RDSALPv9CW0dQCNJ7ALF04afDK_GedISu-_3yozSNy8aw4qICWO04FCAxQmZa64kTMqqve9p1pmQWXVFpj_1iBsDZqTLtLQGtS8rP4pY2E3og2TCgNO4Us4IwMPvkD7oBLDBwr6FagZ5w8zaqluxWNy97uPOnGgB4Jt-a66Xxz3zwfWX1WsNgYdrAk1iIAlzXRF9m5ScHs9Edj31MjHR6kUcHZzazInSfAOZ2xkctPwVfb95NrjjJQtN5E7gnPTb7gUqeKmmiw73buzBgTgOTTTN7OMpU1MNqvg40-RdqGdivziAQxn1QZHKm38EVcxxtN53MNO-2KzlHqk1YDeH0Oy8nmFZo7mGsuBqBWNy89hAfdst5zgjYj-lmn5eku9x4qL1CPPXWO6WnsbRM2zbJJfCv2CrdfRBb670UpSxWS9d6VVaSZmfFNSjh-4mo52wtXVLWs0p6BJwkeTX-8y-Fk5WOo4x4zuTJlUwuArDBHl0N]--></g></svg>