<?xml version="1.0" encoding="us-ascii" standalone="no"?><svg xmlns="http://www.w3.org/2000/svg" xmlns:xlink="http://www.w3.org/1999/xlink" contentStyleType="text/css" height="1642px" preserveAspectRatio="none" style="width:811px;height:1642px;background:#FFFFFF;" version="1.1" viewBox="0 0 811 1642" width="811px" zoomAndPan="magnify"><defs/><g><ellipse cx="464.75" cy="20" fill="#222222" rx="10" ry="10" style="stroke:#222222;stroke-width:1.0;"/><rect fill="#F1F1F1" height="35.9609" rx="12.5" ry="12.5" style="stroke:#181818;stroke-width:0.5;" width="211" x="359.25" y="50"/><text fill="#000000" font-family="sans-serif" font-size="12" lengthAdjust="spacing" textLength="191" x="369.25" y="72.9492">Cliente accede a Interfaz_Postman</text><rect fill="#F1F1F1" height="35.9609" rx="12.5" ry="12.5" style="stroke:#181818;stroke-width:0.5;" width="185" x="372.25" y="105.9609"/><text fill="#000000" font-family="sans-serif" font-size="12" lengthAdjust="spacing" textLength="165" x="382.25" y="128.9102">Cliente llena datos de registro</text><polygon fill="#F1F1F1" points="424.75,161.9219,504.75,161.9219,516.75,173.9219,504.75,185.9219,424.75,185.9219,412.75,173.9219,424.75,161.9219" style="stroke:#181818;stroke-width:0.5;"/><text fill="#000000" font-family="sans-serif" font-size="11" lengthAdjust="spacing" textLength="80" x="424.75" y="178.4766">Datos completos</text><text fill="#000000" font-family="sans-serif" font-size="11" lengthAdjust="spacing" textLength="8" x="404.75" y="171.1611">si</text><text fill="#000000" font-family="sans-serif" font-size="11" lengthAdjust="spacing" textLength="12" x="516.75" y="171.1611">no</text><rect fill="#F1F1F1" height="35.9609" rx="12.5" ry="12.5" style="stroke:#181818;stroke-width:0.5;" width="207" x="170.5" y="195.9219"/><text fill="#000000" font-family="sans-serif" font-size="12" lengthAdjust="spacing" textLength="187" x="180.5" y="218.8711">Cliente hace clic en "Registrarme"</text><rect fill="#F1F1F1" height="35.9609" rx="12.5" ry="12.5" style="stroke:#181818;stroke-width:0.5;" width="169" x="189.5" y="251.8828"/><text fill="#000000" font-family="sans-serif" font-size="12" lengthAdjust="spacing" textLength="149" x="199.5" y="274.832">Sistema registra al usuario</text><polygon fill="#F1F1F1" points="212.5,307.8438,335.5,307.8438,347.5,319.8438,335.5,331.8438,212.5,331.8438,200.5,319.8438,212.5,307.8438" style="stroke:#181818;stroke-width:0.5;"/><text fill="#000000" font-family="sans-serif" font-size="11" lengthAdjust="spacing" textLength="123" x="212.5" y="324.3984">Nombre de usuario existe</text><text fill="#000000" font-family="sans-serif" font-size="11" lengthAdjust="spacing" textLength="8" x="192.5" y="317.083">si</text><text fill="#000000" font-family="sans-serif" font-size="11" lengthAdjust="spacing" textLength="12" x="347.5" y="317.083">no</text><rect fill="#F1F1F1" height="35.9609" rx="12.5" ry="12.5" style="stroke:#181818;stroke-width:0.5;" width="281" x="11" y="341.8438"/><text fill="#000000" font-family="sans-serif" font-size="12" lengthAdjust="spacing" textLength="261" x="21" y="364.793">Sistema muestra mensaje de usuario existente</text><rect fill="#F1F1F1" height="35.9609" rx="12.5" ry="12.5" style="stroke:#181818;stroke-width:0.5;" width="169" x="312" y="341.8438"/><text fill="#000000" font-family="sans-serif" font-size="12" lengthAdjust="spacing" textLength="149" x="322" y="364.793">Sistema registra al usuario</text><polygon fill="#F1F1F1" points="274,383.8047,286,395.8047,274,407.8047,262,395.8047,274,383.8047" style="stroke:#181818;stroke-width:0.5;"/><rect fill="#F1F1F1" height="35.9609" rx="12.5" ry="12.5" style="stroke:#181818;stroke-width:0.5;" width="289" x="511" y="195.9219"/><text fill="#000000" font-family="sans-serif" font-size="12" lengthAdjust="spacing" textLength="269" x="521" y="218.8711">Sistema muestra mensaje de datos incompletos</text><polygon fill="#F1F1F1" points="464.75,413.8047,476.75,425.8047,464.75,437.8047,452.75,425.8047,464.75,413.8047" style="stroke:#181818;stroke-width:0.5;"/><rect fill="#F1F1F1" height="35.9609" rx="12.5" ry="12.5" style="stroke:#181818;stroke-width:0.5;" width="211" x="359.25" y="457.8047"/><text fill="#000000" font-family="sans-serif" font-size="12" lengthAdjust="spacing" textLength="191" x="369.25" y="480.7539">Cliente accede a Interfaz_Postman</text><rect fill="#F1F1F1" height="35.9609" rx="12.5" ry="12.5" style="stroke:#181818;stroke-width:0.5;" width="178" x="375.75" y="513.7656"/><text fill="#000000" font-family="sans-serif" font-size="12" lengthAdjust="spacing" textLength="158" x="385.75" y="536.7148">Cliente ingresa credenciales</text><polygon fill="#F1F1F1" points="414.75,569.7266,514.75,569.7266,526.75,581.7266,514.75,593.7266,414.75,593.7266,402.75,581.7266,414.75,569.7266" style="stroke:#181818;stroke-width:0.5;"/><text fill="#000000" font-family="sans-serif" font-size="11" lengthAdjust="spacing" textLength="100" x="414.75" y="586.2813">Credenciales v&#225;lidas</text><text fill="#000000" font-family="sans-serif" font-size="11" lengthAdjust="spacing" textLength="8" x="394.75" y="578.9658">si</text><text fill="#000000" font-family="sans-serif" font-size="11" lengthAdjust="spacing" textLength="12" x="526.75" y="578.9658">no</text><rect fill="#F1F1F1" height="35.9609" rx="12.5" ry="12.5" style="stroke:#181818;stroke-width:0.5;" width="213" x="214.5" y="603.7266"/><text fill="#000000" font-family="sans-serif" font-size="12" lengthAdjust="spacing" textLength="193" x="224.5" y="626.6758">Cliente hace clic en "Iniciar Sesi&#243;n"</text><rect fill="#F1F1F1" height="35.9609" rx="12.5" ry="12.5" style="stroke:#181818;stroke-width:0.5;" width="139" x="251.5" y="659.6875"/><text fill="#000000" font-family="sans-serif" font-size="12" lengthAdjust="spacing" textLength="119" x="261.5" y="682.6367">Sistema inicia sesi&#243;n</text><rect fill="#F1F1F1" height="35.9609" rx="12.5" ry="12.5" style="stroke:#181818;stroke-width:0.5;" width="322" x="447.5" y="603.7266"/><text fill="#000000" font-family="sans-serif" font-size="12" lengthAdjust="spacing" textLength="302" x="457.5" y="626.6758">Sistema muestra mensaje de credenciales incorrectas</text><polygon fill="#F1F1F1" points="464.75,701.6484,476.75,713.6484,464.75,725.6484,452.75,713.6484,464.75,701.6484" style="stroke:#181818;stroke-width:0.5;"/><rect fill="#F1F1F1" height="35.9609" rx="12.5" ry="12.5" style="stroke:#181818;stroke-width:0.5;" width="211" x="359.25" y="745.6484"/><text fill="#000000" font-family="sans-serif" font-size="12" lengthAdjust="spacing" textLength="191" x="369.25" y="768.5977">Cliente accede a Interfaz_Postman</text><rect fill="#F1F1F1" height="35.9609" rx="12.5" ry="12.5" style="stroke:#181818;stroke-width:0.5;" width="240" x="344.75" y="801.6094"/><text fill="#000000" font-family="sans-serif" font-size="12" lengthAdjust="spacing" textLength="220" x="354.75" y="824.5586">Cliente agrega detalles de nueva acci&#243;n</text><polygon fill="#F1F1F1" points="407.25,857.5703,522.25,857.5703,534.25,869.5703,522.25,881.5703,407.25,881.5703,395.25,869.5703,407.25,857.5703" style="stroke:#181818;stroke-width:0.5;"/><text fill="#000000" font-family="sans-serif" font-size="11" lengthAdjust="spacing" textLength="115" x="407.25" y="874.125">Datos de acci&#243;n v&#225;lidos</text><text fill="#000000" font-family="sans-serif" font-size="11" lengthAdjust="spacing" textLength="8" x="387.25" y="866.8096">si</text><text fill="#000000" font-family="sans-serif" font-size="11" lengthAdjust="spacing" textLength="12" x="534.25" y="866.8096">no</text><rect fill="#F1F1F1" height="35.9609" rx="12.5" ry="12.5" style="stroke:#181818;stroke-width:0.5;" width="140" x="230.5" y="891.5703"/><text fill="#000000" font-family="sans-serif" font-size="12" lengthAdjust="spacing" textLength="120" x="240.5" y="914.5195">Cliente agrega acci&#243;n</text><rect fill="#F1F1F1" height="35.9609" rx="12.5" ry="12.5" style="stroke:#181818;stroke-width:0.5;" width="279" x="161" y="947.5313"/><text fill="#000000" font-family="sans-serif" font-size="12" lengthAdjust="spacing" textLength="259" x="171" y="970.4805">Sistema muestra mensaje de acci&#243;n agregada</text><rect fill="#F1F1F1" height="35.9609" rx="12.5" ry="12.5" style="stroke:#181818;stroke-width:0.5;" width="338" x="460" y="891.5703"/><text fill="#000000" font-family="sans-serif" font-size="12" lengthAdjust="spacing" textLength="318" x="470" y="914.5195">Sistema muestra mensaje de datos de acci&#243;n incorrectos</text><polygon fill="#F1F1F1" points="464.75,989.4922,476.75,1001.4922,464.75,1013.4922,452.75,1001.4922,464.75,989.4922" style="stroke:#181818;stroke-width:0.5;"/><rect fill="#F1F1F1" height="35.9609" rx="12.5" ry="12.5" style="stroke:#181818;stroke-width:0.5;" width="219" x="355.25" y="1033.4922"/><text fill="#000000" font-family="sans-serif" font-size="12" lengthAdjust="spacing" textLength="199" x="365.25" y="1056.4414">Cliente selecciona acci&#243;n a eliminar</text><polygon fill="#F1F1F1" points="398.25,1089.4531,531.25,1089.4531,543.25,1101.4531,531.25,1113.4531,398.25,1113.4531,386.25,1101.4531,398.25,1089.4531" style="stroke:#181818;stroke-width:0.5;"/><text fill="#000000" font-family="sans-serif" font-size="11" lengthAdjust="spacing" textLength="133" x="398.25" y="1106.0078">Acci&#243;n seleccionada existe</text><text fill="#000000" font-family="sans-serif" font-size="11" lengthAdjust="spacing" textLength="8" x="378.25" y="1098.6924">si</text><text fill="#000000" font-family="sans-serif" font-size="11" lengthAdjust="spacing" textLength="12" x="543.25" y="1098.6924">no</text><rect fill="#F1F1F1" height="35.9609" rx="12.5" ry="12.5" style="stroke:#181818;stroke-width:0.5;" width="197" x="209.75" y="1123.4531"/><text fill="#000000" font-family="sans-serif" font-size="12" lengthAdjust="spacing" textLength="177" x="219.75" y="1146.4023">Cliente confirma eliminar acci&#243;n</text><rect fill="#F1F1F1" height="35.9609" rx="12.5" ry="12.5" style="stroke:#181818;stroke-width:0.5;" width="149" x="233.75" y="1179.4141"/><text fill="#000000" font-family="sans-serif" font-size="12" lengthAdjust="spacing" textLength="129" x="243.75" y="1202.3633">Sistema elimina acci&#243;n</text><rect fill="#F1F1F1" height="35.9609" rx="12.5" ry="12.5" style="stroke:#181818;stroke-width:0.5;" width="281" x="167.75" y="1235.375"/><text fill="#000000" font-family="sans-serif" font-size="12" lengthAdjust="spacing" textLength="261" x="177.75" y="1258.3242">Sistema muestra mensaje de acci&#243;n eliminada</text><rect fill="#F1F1F1" height="35.9609" rx="12.5" ry="12.5" style="stroke:#181818;stroke-width:0.5;" width="305" x="468.75" y="1123.4531"/><text fill="#000000" font-family="sans-serif" font-size="12" lengthAdjust="spacing" textLength="285" x="478.75" y="1146.4023">Sistema muestra mensaje de acci&#243;n no encontrada</text><polygon fill="#F1F1F1" points="464.75,1277.3359,476.75,1289.3359,464.75,1301.3359,452.75,1289.3359,464.75,1277.3359" style="stroke:#181818;stroke-width:0.5;"/><rect fill="#F1F1F1" height="35.9609" rx="12.5" ry="12.5" style="stroke:#181818;stroke-width:0.5;" width="134" x="397.75" y="1321.3359"/><text fill="#000000" font-family="sans-serif" font-size="12" lengthAdjust="spacing" textLength="114" x="407.75" y="1344.2852">Cliente vende acci&#243;n</text><polygon fill="#F1F1F1" points="431.25,1377.2969,498.25,1377.2969,510.25,1389.2969,498.25,1401.2969,431.25,1401.2969,419.25,1389.2969,431.25,1377.2969" style="stroke:#181818;stroke-width:0.5;"/><text fill="#000000" font-family="sans-serif" font-size="11" lengthAdjust="spacing" textLength="67" x="431.25" y="1393.8516">Venta exitosa</text><text fill="#000000" font-family="sans-serif" font-size="11" lengthAdjust="spacing" textLength="8" x="411.25" y="1386.5361">si</text><text fill="#000000" font-family="sans-serif" font-size="11" lengthAdjust="spacing" textLength="12" x="510.25" y="1386.5361">no</text><rect fill="#F1F1F1" height="35.9609" rx="12.5" ry="12.5" style="stroke:#181818;stroke-width:0.5;" width="185" x="271.25" y="1411.2969"/><text fill="#000000" font-family="sans-serif" font-size="12" lengthAdjust="spacing" textLength="165" x="281.25" y="1434.2461">Sistema informa venta exitosa</text><rect fill="#F1F1F1" height="35.9609" rx="12.5" ry="12.5" style="stroke:#181818;stroke-width:0.5;" width="179" x="476.25" y="1411.2969"/><text fill="#000000" font-family="sans-serif" font-size="12" lengthAdjust="spacing" textLength="159" x="486.25" y="1434.2461">Sistema informa venta fallida</text><polygon fill="#F1F1F1" points="464.75,1453.2578,476.75,1465.2578,464.75,1477.2578,452.75,1465.2578,464.75,1453.2578" style="stroke:#181818;stroke-width:0.5;"/><rect fill="#F1F1F1" height="35.9609" rx="12.5" ry="12.5" style="stroke:#181818;stroke-width:0.5;" width="314" x="307.75" y="1497.2578"/><text fill="#000000" font-family="sans-serif" font-size="12" lengthAdjust="spacing" textLength="294" x="317.75" y="1520.207">Cliente accede a interfaz de visualizaci&#243;n de acciones</text><rect fill="#F1F1F1" height="35.9609" rx="12.5" ry="12.5" style="stroke:#181818;stroke-width:0.5;" width="217" x="356.25" y="1553.2188"/><text fill="#000000" font-family="sans-serif" font-size="12" lengthAdjust="spacing" textLength="197" x="366.25" y="1576.168">Sistema muestra acciones vigentes</text><ellipse cx="464.75" cy="1620.1797" fill="none" rx="11" ry="11" style="stroke:#222222;stroke-width:1.0;"/><ellipse cx="464.75" cy="1620.1797" fill="#222222" rx="6" ry="6" style="stroke:#222222;stroke-width:1.0;"/><line style="stroke:#181818;stroke-width:1.0;" x1="464.75" x2="464.75" y1="30" y2="50"/><polygon fill="#181818" points="460.75,40,464.75,50,468.75,40,464.75,44" style="stroke:#181818;stroke-width:1.0;"/><line style="stroke:#181818;stroke-width:1.0;" x1="464.75" x2="464.75" y1="85.9609" y2="105.9609"/><polygon fill="#181818" points="460.75,95.9609,464.75,105.9609,468.75,95.9609,464.75,99.9609" style="stroke:#181818;stroke-width:1.0;"/><line style="stroke:#181818;stroke-width:1.0;" x1="274" x2="274" y1="231.8828" y2="251.8828"/><polygon fill="#181818" points="270,241.8828,274,251.8828,278,241.8828,274,245.8828" style="stroke:#181818;stroke-width:1.0;"/><line style="stroke:#181818;stroke-width:1.0;" x1="200.5" x2="151.5" y1="319.8438" y2="319.8438"/><line style="stroke:#181818;stroke-width:1.0;" x1="151.5" x2="151.5" y1="319.8438" y2="341.8438"/><polygon fill="#181818" points="147.5,331.8438,151.5,341.8438,155.5,331.8438,151.5,335.8438" style="stroke:#181818;stroke-width:1.0;"/><line style="stroke:#181818;stroke-width:1.0;" x1="347.5" x2="396.5" y1="319.8438" y2="319.8438"/><line style="stroke:#181818;stroke-width:1.0;" x1="396.5" x2="396.5" y1="319.8438" y2="341.8438"/><polygon fill="#181818" points="392.5,331.8438,396.5,341.8438,400.5,331.8438,396.5,335.8438" style="stroke:#181818;stroke-width:1.0;"/><line style="stroke:#181818;stroke-width:1.0;" x1="151.5" x2="151.5" y1="377.8047" y2="395.8047"/><line style="stroke:#181818;stroke-width:1.0;" x1="151.5" x2="262" y1="395.8047" y2="395.8047"/><polygon fill="#181818" points="252,391.8047,262,395.8047,252,399.8047,256,395.8047" style="stroke:#181818;stroke-width:1.0;"/><line style="stroke:#181818;stroke-width:1.0;" x1="396.5" x2="396.5" y1="377.8047" y2="395.8047"/><line style="stroke:#181818;stroke-width:1.0;" x1="396.5" x2="286" y1="395.8047" y2="395.8047"/><polygon fill="#181818" points="296,391.8047,286,395.8047,296,399.8047,292,395.8047" style="stroke:#181818;stroke-width:1.0;"/><line style="stroke:#181818;stroke-width:1.0;" x1="274" x2="274" y1="287.8438" y2="307.8438"/><polygon fill="#181818" points="270,297.8438,274,307.8438,278,297.8438,274,301.8438" style="stroke:#181818;stroke-width:1.0;"/><line style="stroke:#181818;stroke-width:1.0;" x1="412.75" x2="274" y1="173.9219" y2="173.9219"/><line style="stroke:#181818;stroke-width:1.0;" x1="274" x2="274" y1="173.9219" y2="195.9219"/><polygon fill="#181818" points="270,185.9219,274,195.9219,278,185.9219,274,189.9219" style="stroke:#181818;stroke-width:1.0;"/><line style="stroke:#181818;stroke-width:1.0;" x1="516.75" x2="655.5" y1="173.9219" y2="173.9219"/><line style="stroke:#181818;stroke-width:1.0;" x1="655.5" x2="655.5" y1="173.9219" y2="195.9219"/><polygon fill="#181818" points="651.5,185.9219,655.5,195.9219,659.5,185.9219,655.5,189.9219" style="stroke:#181818;stroke-width:1.0;"/><line style="stroke:#181818;stroke-width:1.0;" x1="274" x2="274" y1="407.8047" y2="425.8047"/><line style="stroke:#181818;stroke-width:1.0;" x1="274" x2="452.75" y1="425.8047" y2="425.8047"/><polygon fill="#181818" points="442.75,421.8047,452.75,425.8047,442.75,429.8047,446.75,425.8047" style="stroke:#181818;stroke-width:1.0;"/><line style="stroke:#181818;stroke-width:1.0;" x1="655.5" x2="655.5" y1="231.8828" y2="425.8047"/><line style="stroke:#181818;stroke-width:1.0;" x1="655.5" x2="476.75" y1="425.8047" y2="425.8047"/><polygon fill="#181818" points="486.75,421.8047,476.75,425.8047,486.75,429.8047,482.75,425.8047" style="stroke:#181818;stroke-width:1.0;"/><line style="stroke:#181818;stroke-width:1.0;" x1="464.75" x2="464.75" y1="141.9219" y2="161.9219"/><polygon fill="#181818" points="460.75,151.9219,464.75,161.9219,468.75,151.9219,464.75,155.9219" style="stroke:#181818;stroke-width:1.0;"/><line style="stroke:#181818;stroke-width:1.0;" x1="464.75" x2="464.75" y1="437.8047" y2="457.8047"/><polygon fill="#181818" points="460.75,447.8047,464.75,457.8047,468.75,447.8047,464.75,451.8047" style="stroke:#181818;stroke-width:1.0;"/><line style="stroke:#181818;stroke-width:1.0;" x1="464.75" x2="464.75" y1="493.7656" y2="513.7656"/><polygon fill="#181818" points="460.75,503.7656,464.75,513.7656,468.75,503.7656,464.75,507.7656" style="stroke:#181818;stroke-width:1.0;"/><line style="stroke:#181818;stroke-width:1.0;" x1="321" x2="321" y1="639.6875" y2="659.6875"/><polygon fill="#181818" points="317,649.6875,321,659.6875,325,649.6875,321,653.6875" style="stroke:#181818;stroke-width:1.0;"/><line style="stroke:#181818;stroke-width:1.0;" x1="402.75" x2="321" y1="581.7266" y2="581.7266"/><line style="stroke:#181818;stroke-width:1.0;" x1="321" x2="321" y1="581.7266" y2="603.7266"/><polygon fill="#181818" points="317,593.7266,321,603.7266,325,593.7266,321,597.7266" style="stroke:#181818;stroke-width:1.0;"/><line style="stroke:#181818;stroke-width:1.0;" x1="526.75" x2="608.5" y1="581.7266" y2="581.7266"/><line style="stroke:#181818;stroke-width:1.0;" x1="608.5" x2="608.5" y1="581.7266" y2="603.7266"/><polygon fill="#181818" points="604.5,593.7266,608.5,603.7266,612.5,593.7266,608.5,597.7266" style="stroke:#181818;stroke-width:1.0;"/><line style="stroke:#181818;stroke-width:1.0;" x1="321" x2="321" y1="695.6484" y2="713.6484"/><line style="stroke:#181818;stroke-width:1.0;" x1="321" x2="452.75" y1="713.6484" y2="713.6484"/><polygon fill="#181818" points="442.75,709.6484,452.75,713.6484,442.75,717.6484,446.75,713.6484" style="stroke:#181818;stroke-width:1.0;"/><line style="stroke:#181818;stroke-width:1.0;" x1="608.5" x2="608.5" y1="639.6875" y2="713.6484"/><line style="stroke:#181818;stroke-width:1.0;" x1="608.5" x2="476.75" y1="713.6484" y2="713.6484"/><polygon fill="#181818" points="486.75,709.6484,476.75,713.6484,486.75,717.6484,482.75,713.6484" style="stroke:#181818;stroke-width:1.0;"/><line style="stroke:#181818;stroke-width:1.0;" x1="464.75" x2="464.75" y1="549.7266" y2="569.7266"/><polygon fill="#181818" points="460.75,559.7266,464.75,569.7266,468.75,559.7266,464.75,563.7266" style="stroke:#181818;stroke-width:1.0;"/><line style="stroke:#181818;stroke-width:1.0;" x1="464.75" x2="464.75" y1="725.6484" y2="745.6484"/><polygon fill="#181818" points="460.75,735.6484,464.75,745.6484,468.75,735.6484,464.75,739.6484" style="stroke:#181818;stroke-width:1.0;"/><line style="stroke:#181818;stroke-width:1.0;" x1="464.75" x2="464.75" y1="781.6094" y2="801.6094"/><polygon fill="#181818" points="460.75,791.6094,464.75,801.6094,468.75,791.6094,464.75,795.6094" style="stroke:#181818;stroke-width:1.0;"/><line style="stroke:#181818;stroke-width:1.0;" x1="300.5" x2="300.5" y1="927.5313" y2="947.5313"/><polygon fill="#181818" points="296.5,937.5313,300.5,947.5313,304.5,937.5313,300.5,941.5313" style="stroke:#181818;stroke-width:1.0;"/><line style="stroke:#181818;stroke-width:1.0;" x1="395.25" x2="300.5" y1="869.5703" y2="869.5703"/><line style="stroke:#181818;stroke-width:1.0;" x1="300.5" x2="300.5" y1="869.5703" y2="891.5703"/><polygon fill="#181818" points="296.5,881.5703,300.5,891.5703,304.5,881.5703,300.5,885.5703" style="stroke:#181818;stroke-width:1.0;"/><line style="stroke:#181818;stroke-width:1.0;" x1="534.25" x2="629" y1="869.5703" y2="869.5703"/><line style="stroke:#181818;stroke-width:1.0;" x1="629" x2="629" y1="869.5703" y2="891.5703"/><polygon fill="#181818" points="625,881.5703,629,891.5703,633,881.5703,629,885.5703" style="stroke:#181818;stroke-width:1.0;"/><line style="stroke:#181818;stroke-width:1.0;" x1="300.5" x2="300.5" y1="983.4922" y2="1001.4922"/><line style="stroke:#181818;stroke-width:1.0;" x1="300.5" x2="452.75" y1="1001.4922" y2="1001.4922"/><polygon fill="#181818" points="442.75,997.4922,452.75,1001.4922,442.75,1005.4922,446.75,1001.4922" style="stroke:#181818;stroke-width:1.0;"/><line style="stroke:#181818;stroke-width:1.0;" x1="629" x2="629" y1="927.5313" y2="1001.4922"/><line style="stroke:#181818;stroke-width:1.0;" x1="629" x2="476.75" y1="1001.4922" y2="1001.4922"/><polygon fill="#181818" points="486.75,997.4922,476.75,1001.4922,486.75,1005.4922,482.75,1001.4922" style="stroke:#181818;stroke-width:1.0;"/><line style="stroke:#181818;stroke-width:1.0;" x1="464.75" x2="464.75" y1="837.5703" y2="857.5703"/><polygon fill="#181818" points="460.75,847.5703,464.75,857.5703,468.75,847.5703,464.75,851.5703" style="stroke:#181818;stroke-width:1.0;"/><line style="stroke:#181818;stroke-width:1.0;" x1="464.75" x2="464.75" y1="1013.4922" y2="1033.4922"/><polygon fill="#181818" points="460.75,1023.4922,464.75,1033.4922,468.75,1023.4922,464.75,1027.4922" style="stroke:#181818;stroke-width:1.0;"/><line style="stroke:#181818;stroke-width:1.0;" x1="308.25" x2="308.25" y1="1159.4141" y2="1179.4141"/><polygon fill="#181818" points="304.25,1169.4141,308.25,1179.4141,312.25,1169.4141,308.25,1173.4141" style="stroke:#181818;stroke-width:1.0;"/><line style="stroke:#181818;stroke-width:1.0;" x1="308.25" x2="308.25" y1="1215.375" y2="1235.375"/><polygon fill="#181818" points="304.25,1225.375,308.25,1235.375,312.25,1225.375,308.25,1229.375" style="stroke:#181818;stroke-width:1.0;"/><line style="stroke:#181818;stroke-width:1.0;" x1="386.25" x2="308.25" y1="1101.4531" y2="1101.4531"/><line style="stroke:#181818;stroke-width:1.0;" x1="308.25" x2="308.25" y1="1101.4531" y2="1123.4531"/><polygon fill="#181818" points="304.25,1113.4531,308.25,1123.4531,312.25,1113.4531,308.25,1117.4531" style="stroke:#181818;stroke-width:1.0;"/><line style="stroke:#181818;stroke-width:1.0;" x1="543.25" x2="621.25" y1="1101.4531" y2="1101.4531"/><line style="stroke:#181818;stroke-width:1.0;" x1="621.25" x2="621.25" y1="1101.4531" y2="1123.4531"/><polygon fill="#181818" points="617.25,1113.4531,621.25,1123.4531,625.25,1113.4531,621.25,1117.4531" style="stroke:#181818;stroke-width:1.0;"/><line style="stroke:#181818;stroke-width:1.0;" x1="308.25" x2="308.25" y1="1271.3359" y2="1289.3359"/><line style="stroke:#181818;stroke-width:1.0;" x1="308.25" x2="452.75" y1="1289.3359" y2="1289.3359"/><polygon fill="#181818" points="442.75,1285.3359,452.75,1289.3359,442.75,1293.3359,446.75,1289.3359" style="stroke:#181818;stroke-width:1.0;"/><line style="stroke:#181818;stroke-width:1.0;" x1="621.25" x2="621.25" y1="1159.4141" y2="1289.3359"/><line style="stroke:#181818;stroke-width:1.0;" x1="621.25" x2="476.75" y1="1289.3359" y2="1289.3359"/><polygon fill="#181818" points="486.75,1285.3359,476.75,1289.3359,486.75,1293.3359,482.75,1289.3359" style="stroke:#181818;stroke-width:1.0;"/><line style="stroke:#181818;stroke-width:1.0;" x1="464.75" x2="464.75" y1="1069.4531" y2="1089.4531"/><polygon fill="#181818" points="460.75,1079.4531,464.75,1089.4531,468.75,1079.4531,464.75,1083.4531" style="stroke:#181818;stroke-width:1.0;"/><line style="stroke:#181818;stroke-width:1.0;" x1="464.75" x2="464.75" y1="1301.3359" y2="1321.3359"/><polygon fill="#181818" points="460.75,1311.3359,464.75,1321.3359,468.75,1311.3359,464.75,1315.3359" style="stroke:#181818;stroke-width:1.0;"/><line style="stroke:#181818;stroke-width:1.0;" x1="419.25" x2="363.75" y1="1389.2969" y2="1389.2969"/><line style="stroke:#181818;stroke-width:1.0;" x1="363.75" x2="363.75" y1="1389.2969" y2="1411.2969"/><polygon fill="#181818" points="359.75,1401.2969,363.75,1411.2969,367.75,1401.2969,363.75,1405.2969" style="stroke:#181818;stroke-width:1.0;"/><line style="stroke:#181818;stroke-width:1.0;" x1="510.25" x2="565.75" y1="1389.2969" y2="1389.2969"/><line style="stroke:#181818;stroke-width:1.0;" x1="565.75" x2="565.75" y1="1389.2969" y2="1411.2969"/><polygon fill="#181818" points="561.75,1401.2969,565.75,1411.2969,569.75,1401.2969,565.75,1405.2969" style="stroke:#181818;stroke-width:1.0;"/><line style="stroke:#181818;stroke-width:1.0;" x1="363.75" x2="363.75" y1="1447.2578" y2="1465.2578"/><line style="stroke:#181818;stroke-width:1.0;" x1="363.75" x2="452.75" y1="1465.2578" y2="1465.2578"/><polygon fill="#181818" points="442.75,1461.2578,452.75,1465.2578,442.75,1469.2578,446.75,1465.2578" style="stroke:#181818;stroke-width:1.0;"/><line style="stroke:#181818;stroke-width:1.0;" x1="565.75" x2="565.75" y1="1447.2578" y2="1465.2578"/><line style="stroke:#181818;stroke-width:1.0;" x1="565.75" x2="476.75" y1="1465.2578" y2="1465.2578"/><polygon fill="#181818" points="486.75,1461.2578,476.75,1465.2578,486.75,1469.2578,482.75,1465.2578" style="stroke:#181818;stroke-width:1.0;"/><line style="stroke:#181818;stroke-width:1.0;" x1="464.75" x2="464.75" y1="1357.2969" y2="1377.2969"/><polygon fill="#181818" points="460.75,1367.2969,464.75,1377.2969,468.75,1367.2969,464.75,1371.2969" style="stroke:#181818;stroke-width:1.0;"/><line style="stroke:#181818;stroke-width:1.0;" x1="464.75" x2="464.75" y1="1477.2578" y2="1497.2578"/><polygon fill="#181818" points="460.75,1487.2578,464.75,1497.2578,468.75,1487.2578,464.75,1491.2578" style="stroke:#181818;stroke-width:1.0;"/><line style="stroke:#181818;stroke-width:1.0;" x1="464.75" x2="464.75" y1="1533.2188" y2="1553.2188"/><polygon fill="#181818" points="460.75,1543.2188,464.75,1553.2188,468.75,1543.2188,464.75,1547.2188" style="stroke:#181818;stroke-width:1.0;"/><line style="stroke:#181818;stroke-width:1.0;" x1="464.75" x2="464.75" y1="1589.1797" y2="1609.1797"/><polygon fill="#181818" points="460.75,1599.1797,464.75,1609.1797,468.75,1599.1797,464.75,1603.1797" style="stroke:#181818;stroke-width:1.0;"/><!--SRC=[dLHBRkCm3Dtx54HNoHN6gq6xwQOOJ85k2rQcKnOI5KYACUXjUeOvGYusb2r_aZf5ColRUdnFV4-KOyAGgkh7hMMIH836KACFkDUlqEBxyoyVaqEfvnfhIH0QJ3w2rWRQSKp1rrN5BMpk-dNZtTwIlcqXlPB09lAs0fWqNj4G6Ci65BpvFKXWS7HJvx97_II7epO2MZZ40mRs6S_xF7Zt4YWtK02WFvbrkk52onsebt8a4TzMcDfN5YSR2JRYp-WNMY5fkAsMdAys749ZcUAfgq7WkXDWsGMA22PegHX6Ix74VxjOWkxuORd1xnt2lR3I0ZnIvEDVEJq8xa680rP_s_2omzvt26GI_gTlLDix7JrAQBEWrik1EipaeQ_523OqBfSSBWvZaPr4lhOqYWwi1kihJtyXCGMoDWYHB6cT5votrE5anuAXEFrPWBcsmTLxCAaQBoq7DokjsYxWjP4KsZMPZ5JHMwXfYC8z_IoCJXVex9YV5EdTQdnuPdUUszPdjzsoza9tfxMjZXYljJ8DAfT1pJOwrb-2vNSSt9HUlUHx-Sd-22bhboNptOt9xwj_]--></g></svg>