<?xml version="1.0" encoding="us-ascii" standalone="no"?><svg xmlns="http://www.w3.org/2000/svg" xmlns:xlink="http://www.w3.org/1999/xlink" contentStyleType="text/css" height="268px" preserveAspectRatio="none" style="width:997px;height:268px;background:#FFFFFF;" version="1.1" viewBox="0 0 997 268" width="997px" zoomAndPan="magnify"><defs/><g><!--cluster Interfaz_Postman--><g id="cluster_Interfaz_Postman"><path d="M8.5,6.0137 L130.5,6.0137 A3.75,3.75 0 0 1 133,8.5137 L140,30.6348 L987.5,30.6348 A2.5,2.5 0 0 1 990,33.1348 L990,105.5137 A2.5,2.5 0 0 1 987.5,108.0137 L8.5,108.0137 A2.5,2.5 0 0 1 6,105.5137 L6,8.5137 A2.5,2.5 0 0 1 8.5,6.0137 " fill="none" style="stroke:#000000;stroke-width:1.5;"/><line style="stroke:#000000;stroke-width:1.5;" x1="6" x2="140" y1="30.6348" y2="30.6348"/><text fill="#000000" font-family="sans-serif" font-size="14" font-weight="bold" lengthAdjust="spacing" textLength="121" x="10" y="23.1211">Interfaz_Postman</text></g><!--cluster Base de Datos--><g id="cluster_Base de Datos"><path d="M274.5,159.0137 L376.5,159.0137 A3.75,3.75 0 0 1 379,161.5137 L386,183.6348 L588.5,183.6348 A2.5,2.5 0 0 1 591,186.1348 L591,258.5137 A2.5,2.5 0 0 1 588.5,261.0137 L274.5,261.0137 A2.5,2.5 0 0 1 272,258.5137 L272,161.5137 A2.5,2.5 0 0 1 274.5,159.0137 " fill="none" style="stroke:#000000;stroke-width:1.5;"/><line style="stroke:#000000;stroke-width:1.5;" x1="272" x2="386" y1="183.6348" y2="183.6348"/><text fill="#000000" font-family="sans-serif" font-size="14" font-weight="bold" lengthAdjust="spacing" textLength="101" x="276" y="176.1211">Base de Datos</text></g><!--entity Registro Usuario--><g id="elem_Registro Usuario"><rect fill="#F1F1F1" height="48.6211" rx="2.5" ry="2.5" style="stroke:#181818;stroke-width:0.5;" width="145" x="828.5" y="43.0137"/><rect fill="#F1F1F1" height="10" style="stroke:#181818;stroke-width:0.5;" width="15" x="953.5" y="48.0137"/><rect fill="#F1F1F1" height="2" style="stroke:#181818;stroke-width:0.5;" width="4" x="951.5" y="50.0137"/><rect fill="#F1F1F1" height="2" style="stroke:#181818;stroke-width:0.5;" width="4" x="951.5" y="54.0137"/><text fill="#000000" font-family="sans-serif" font-size="14" lengthAdjust="spacing" textLength="105" x="843.5" y="78.1211">Registro Usuario</text></g><!--entity Inicio Sesi?n--><g id="elem_Inicio Sesi&#243;n"><rect fill="#F1F1F1" height="48.6211" rx="2.5" ry="2.5" style="stroke:#181818;stroke-width:0.5;" width="119" x="22.5" y="43.0137"/><rect fill="#F1F1F1" height="10" style="stroke:#181818;stroke-width:0.5;" width="15" x="121.5" y="48.0137"/><rect fill="#F1F1F1" height="2" style="stroke:#181818;stroke-width:0.5;" width="4" x="119.5" y="50.0137"/><rect fill="#F1F1F1" height="2" style="stroke:#181818;stroke-width:0.5;" width="4" x="119.5" y="54.0137"/><text fill="#000000" font-family="sans-serif" font-size="14" lengthAdjust="spacing" textLength="79" x="37.5" y="78.1211">Inicio Sesi&#243;n</text></g><!--entity Agregar/Eliminar Acciones--><g id="elem_Agregar/Eliminar Acciones"><rect fill="#F1F1F1" height="48.6211" rx="2.5" ry="2.5" style="stroke:#181818;stroke-width:0.5;" width="206" x="177" y="43.0137"/><rect fill="#F1F1F1" height="10" style="stroke:#181818;stroke-width:0.5;" width="15" x="363" y="48.0137"/><rect fill="#F1F1F1" height="2" style="stroke:#181818;stroke-width:0.5;" width="4" x="361" y="50.0137"/><rect fill="#F1F1F1" height="2" style="stroke:#181818;stroke-width:0.5;" width="4" x="361" y="54.0137"/><text fill="#000000" font-family="sans-serif" font-size="14" lengthAdjust="spacing" textLength="166" x="192" y="78.1211">Agregar/Eliminar Acciones</text></g><!--entity Venta de Acciones--><g id="elem_Venta de Acciones"><rect fill="#F1F1F1" height="48.6211" rx="2.5" ry="2.5" style="stroke:#181818;stroke-width:0.5;" width="158" x="418" y="43.0137"/><rect fill="#F1F1F1" height="10" style="stroke:#181818;stroke-width:0.5;" width="15" x="556" y="48.0137"/><rect fill="#F1F1F1" height="2" style="stroke:#181818;stroke-width:0.5;" width="4" x="554" y="50.0137"/><rect fill="#F1F1F1" height="2" style="stroke:#181818;stroke-width:0.5;" width="4" x="554" y="54.0137"/><text fill="#000000" font-family="sans-serif" font-size="14" lengthAdjust="spacing" textLength="118" x="433" y="78.1211">Venta de Acciones</text></g><!--entity Visualizaci?n Acciones--><g id="elem_Visualizaci&#243;n Acciones"><rect fill="#F1F1F1" height="48.6211" rx="2.5" ry="2.5" style="stroke:#181818;stroke-width:0.5;" width="182" x="611" y="43.0137"/><rect fill="#F1F1F1" height="10" style="stroke:#181818;stroke-width:0.5;" width="15" x="773" y="48.0137"/><rect fill="#F1F1F1" height="2" style="stroke:#181818;stroke-width:0.5;" width="4" x="771" y="50.0137"/><rect fill="#F1F1F1" height="2" style="stroke:#181818;stroke-width:0.5;" width="4" x="771" y="54.0137"/><text fill="#000000" font-family="sans-serif" font-size="14" lengthAdjust="spacing" textLength="142" x="626" y="78.1211">Visualizaci&#243;n Acciones</text></g><!--entity Acciones Usuarios--><g id="elem_Acciones Usuarios"><rect fill="#F1F1F1" height="48.6211" rx="2.5" ry="2.5" style="stroke:#181818;stroke-width:0.5;" width="156" x="419" y="196.0137"/><rect fill="#F1F1F1" height="10" style="stroke:#181818;stroke-width:0.5;" width="15" x="555" y="201.0137"/><rect fill="#F1F1F1" height="2" style="stroke:#181818;stroke-width:0.5;" width="4" x="553" y="203.0137"/><rect fill="#F1F1F1" height="2" style="stroke:#181818;stroke-width:0.5;" width="4" x="553" y="207.0137"/><text fill="#000000" font-family="sans-serif" font-size="14" lengthAdjust="spacing" textLength="116" x="434" y="231.1211">Acciones Usuarios</text></g><!--entity Usuarios--><g id="elem_Usuarios"><rect fill="#F1F1F1" height="48.6211" rx="2.5" ry="2.5" style="stroke:#181818;stroke-width:0.5;" width="95" x="288.5" y="196.0137"/><rect fill="#F1F1F1" height="10" style="stroke:#181818;stroke-width:0.5;" width="15" x="363.5" y="201.0137"/><rect fill="#F1F1F1" height="2" style="stroke:#181818;stroke-width:0.5;" width="4" x="361.5" y="203.0137"/><rect fill="#F1F1F1" height="2" style="stroke:#181818;stroke-width:0.5;" width="4" x="361.5" y="207.0137"/><text fill="#000000" font-family="sans-serif" font-size="14" lengthAdjust="spacing" textLength="55" x="303.5" y="231.1211">Usuarios</text></g><!--link Registro Usuario to Acciones Usuarios--><g id="link_Registro Usuario_Acciones Usuarios"><path d="M869.41,92.1737 C846.45,108.4137 814.08,129.4237 783,143.0137 C715.42,172.5637 639.613,191.7959 580.873,204.0759 " fill="none" id="Registro Usuario-to-Acciones Usuarios" style="stroke:#181818;stroke-width:1.0;"/><polygon fill="#181818" points="575,205.3037,584.6281,207.3773,579.8942,204.2805,582.991,199.5466,575,205.3037" style="stroke:#181818;stroke-width:1.0;"/><text fill="#000000" font-family="sans-serif" font-size="13" lengthAdjust="spacing" textLength="100" x="818" y="139.042">Registrar Usuario</text></g><!--link Inicio Sesi?n to Usuarios--><g id="link_Inicio Sesi&#243;n_Usuarios"><path d="M119.88,92.1237 C132.31,99.8037 146.21,108.3337 159,116.0137 C205.38,143.8737 253.8959,172.1401 289.8659,192.9401 " fill="none" id="Inicio Sesi&#243;n-to-Usuarios" style="stroke:#181818;stroke-width:1.0;"/><polygon fill="#181818" points="295.06,195.9437,289.2712,187.9756,290.7316,193.4407,285.2665,194.9011,295.06,195.9437" style="stroke:#181818;stroke-width:1.0;"/><text fill="#000000" font-family="sans-serif" font-size="13" lengthAdjust="spacing" textLength="78" x="204" y="139.042">Iniciar Sesi&#243;n</text></g><!--link Agregar/Eliminar Acciones to Acciones Usuarios--><g id="link_Agregar/Eliminar Acciones_Acciones Usuarios"><path d="M290.26,92.1237 C299.02,109.2437 313.33,131.3637 333,143.0137 C359.18,158.5237 372.61,140.0537 401,151.0137 C427.36,161.1937 448.6248,176.4219 466.8348,191.8719 " fill="none" id="Agregar/Eliminar Acciones-to-Acciones Usuarios" style="stroke:#181818;stroke-width:1.0;"/><polygon fill="#181818" points="471.41,195.7537,467.1351,186.881,467.5974,192.5189,461.9594,192.9812,471.41,195.7537" style="stroke:#181818;stroke-width:1.0;"/><text fill="#000000" font-family="sans-serif" font-size="13" lengthAdjust="spacing" textLength="154" x="334" y="139.042">Agregar/Eliminar Acciones</text></g><!--link Venta de Acciones to Acciones Usuarios--><g id="link_Venta de Acciones_Acciones Usuarios"><path d="M497,92.1037 C497,120.3137 497,161.2437 497,189.5837 " fill="none" id="Venta de Acciones-to-Acciones Usuarios" style="stroke:#181818;stroke-width:1.0;"/><polygon fill="#181818" points="497,195.5837,501,186.5837,497,190.5837,493,186.5837,497,195.5837" style="stroke:#181818;stroke-width:1.0;"/><text fill="#000000" font-family="sans-serif" font-size="13" lengthAdjust="spacing" textLength="110" x="498" y="139.042">Venta de Acciones</text></g><!--link Visualizaci?n Acciones to Acciones Usuarios--><g id="link_Visualizaci&#243;n Acciones_Acciones Usuarios"><path d="M677.19,92.0537 C660.67,107.2637 638.19,127.1137 617,143.0137 C591.41,162.2137 566.1297,178.4514 542.3297,192.8914 " fill="none" id="Visualizaci&#243;n Acciones-to-Acciones Usuarios" style="stroke:#181818;stroke-width:1.0;"/><polygon fill="#181818" points="537.2,196.0037,546.9694,194.755,541.4747,193.4101,542.8197,187.9154,537.2,196.0037" style="stroke:#181818;stroke-width:1.0;"/><text fill="#000000" font-family="sans-serif" font-size="13" lengthAdjust="spacing" textLength="135" x="639" y="139.042">Visualizaci&#243;n Acciones</text></g><!--SRC=[VP0x3i8m44HxdsBbFgAdG0g28Xq2GOCGMeKbMX7io3PD4AVY25mCXpZyyd7dsNdZyHQOdZ0Za8boP8vOxXVQkZCg2LS1_coNbB5rHiFQNj2mtjLoeZXb3Iko_BYh8CQPeGpDQ9xpcHKQY5DlKcJ3V4FA8HoefRFFphd4j0hxcjw4A9g6KxHKiJDqshxhDTwcNXFvkVgCzYSWYYPTC8n11hEl7sGf_hzRup_Ko-6POF5C_pQ6Nk-bV69xVqD9BNULqBFfmPnkHeed]--></g></svg>