<?xml version="1.0" encoding="us-ascii" standalone="no"?><svg xmlns="http://www.w3.org/2000/svg" xmlns:xlink="http://www.w3.org/1999/xlink" contentStyleType="text/css" height="643px" preserveAspectRatio="none" style="width:630px;height:643px;background:#FFFFFF;" version="1.1" viewBox="0 0 630 643" width="630px" zoomAndPan="magnify"><defs/><g><rect fill="#FFFFFF" height="456.7051" style="stroke:#181818;stroke-width:1.0;" width="10" x="42" y="93.6211"/><rect fill="#FFFFFF" height="433.4141" style="stroke:#181818;stroke-width:1.0;" width="10" x="258" y="116.9121"/><rect fill="#FFFFFF" height="402.123" style="stroke:#181818;stroke-width:1.0;" width="10" x="536" y="148.2031"/><rect fill="none" height="286.25" style="stroke:#000000;stroke-width:1.5;" width="613.5" x="10" y="257.0762"/><line style="stroke:#181818;stroke-width:0.5;stroke-dasharray:5.0,5.0;" x1="47" x2="47" y1="83.6211" y2="560.3262"/><line style="stroke:#181818;stroke-width:0.5;stroke-dasharray:5.0,5.0;" x1="262.5" x2="262.5" y1="83.6211" y2="560.3262"/><line style="stroke:#181818;stroke-width:0.5;stroke-dasharray:5.0,5.0;" x1="540.5" x2="540.5" y1="83.6211" y2="560.3262"/><text fill="#000000" font-family="sans-serif" font-size="14" lengthAdjust="spacing" textLength="48" x="20" y="80.1074">Usuario</text><ellipse cx="47" cy="13.5" fill="#E2E2F0" rx="8" ry="8" style="stroke:#181818;stroke-width:0.5;"/><path d="M47,21.5 L47,48.5 M34,29.5 L60,29.5 M47,48.5 L34,63.5 M47,48.5 L60,63.5 " fill="none" style="stroke:#181818;stroke-width:0.5;"/><text fill="#000000" font-family="sans-serif" font-size="14" lengthAdjust="spacing" textLength="48" x="20" y="574.4336">Usuario</text><ellipse cx="47" cy="586.4473" fill="#E2E2F0" rx="8" ry="8" style="stroke:#181818;stroke-width:0.5;"/><path d="M47,594.4473 L47,621.4473 M34,602.4473 L60,602.4473 M47,621.4473 L34,636.4473 M47,621.4473 L60,636.4473 " fill="none" style="stroke:#181818;stroke-width:0.5;"/><rect fill="#E2E2F0" height="32.6211" rx="2.5" ry="2.5" style="stroke:#181818;stroke-width:0.5;" width="119" x="203.5" y="50"/><text fill="#000000" font-family="sans-serif" font-size="14" lengthAdjust="spacing" textLength="105" x="210.5" y="72.1074">Interfaz Postman</text><rect fill="#E2E2F0" height="32.6211" rx="2.5" ry="2.5" style="stroke:#181818;stroke-width:0.5;" width="119" x="203.5" y="559.3262"/><text fill="#000000" font-family="sans-serif" font-size="14" lengthAdjust="spacing" textLength="105" x="210.5" y="581.4336">Interfaz Postman</text><rect fill="#E2E2F0" height="32.6211" rx="2.5" ry="2.5" style="stroke:#181818;stroke-width:0.5;" width="145" x="468.5" y="50"/><text fill="#000000" font-family="sans-serif" font-size="14" lengthAdjust="spacing" textLength="131" x="475.5" y="72.1074">Sistema de Acciones</text><rect fill="#E2E2F0" height="32.6211" rx="2.5" ry="2.5" style="stroke:#181818;stroke-width:0.5;" width="145" x="468.5" y="559.3262"/><text fill="#000000" font-family="sans-serif" font-size="14" lengthAdjust="spacing" textLength="131" x="475.5" y="581.4336">Sistema de Acciones</text><rect fill="#FFFFFF" height="456.7051" style="stroke:#181818;stroke-width:1.0;" width="10" x="42" y="93.6211"/><rect fill="#FFFFFF" height="433.4141" style="stroke:#181818;stroke-width:1.0;" width="10" x="258" y="116.9121"/><rect fill="#FFFFFF" height="402.123" style="stroke:#181818;stroke-width:1.0;" width="10" x="536" y="148.2031"/><polygon fill="#181818" points="246,112.9121,256,116.9121,246,120.9121,250,116.9121" style="stroke:#181818;stroke-width:1.0;"/><line style="stroke:#181818;stroke-width:1.0;" x1="52" x2="252" y1="116.9121" y2="116.9121"/><text fill="#000000" font-family="sans-serif" font-size="13" lengthAdjust="spacing" textLength="186" x="59" y="111.6494">Selecciona acci&#243;n para comprar</text><polygon fill="#181818" points="524,144.2031,534,148.2031,524,152.2031,528,148.2031" style="stroke:#181818;stroke-width:1.0;"/><line style="stroke:#181818;stroke-width:1.0;" x1="268" x2="530" y1="148.2031" y2="148.2031"/><text fill="#000000" font-family="sans-serif" font-size="13" lengthAdjust="spacing" textLength="246" x="275" y="142.9404">Solicita detalles de la acci&#243;n seleccionada</text><polygon fill="#181818" points="279,175.4941,269,179.4941,279,183.4941,275,179.4941" style="stroke:#181818;stroke-width:1.0;"/><line style="stroke:#181818;stroke-width:1.0;stroke-dasharray:2.0,2.0;" x1="273" x2="535" y1="179.4941" y2="179.4941"/><text fill="#000000" font-family="sans-serif" font-size="13" lengthAdjust="spacing" textLength="121" x="285" y="174.2314">Detalles de la acci&#243;n</text><polygon fill="#181818" points="524,206.7852,534,210.7852,524,214.7852,528,210.7852" style="stroke:#181818;stroke-width:1.0;"/><line style="stroke:#181818;stroke-width:1.0;" x1="268" x2="530" y1="210.7852" y2="210.7852"/><text fill="#000000" font-family="sans-serif" font-size="13" lengthAdjust="spacing" textLength="244" x="275" y="205.5225">Solicita compra de la acci&#243;n seleccionada</text><polygon fill="#181818" points="279,238.0762,269,242.0762,279,246.0762,275,242.0762" style="stroke:#181818;stroke-width:1.0;"/><line style="stroke:#181818;stroke-width:1.0;stroke-dasharray:2.0,2.0;" x1="273" x2="535" y1="242.0762" y2="242.0762"/><text fill="#000000" font-family="sans-serif" font-size="13" lengthAdjust="spacing" textLength="175" x="285" y="236.8135">Confirmaci&#243;n de disponibilidad</text><path d="M10,257.0762 L71,257.0762 L71,266.3672 L61,276.3672 L10,276.3672 L10,257.0762 " fill="#EEEEEE" style="stroke:#000000;stroke-width:1.5;"/><rect fill="none" height="286.25" style="stroke:#000000;stroke-width:1.5;" width="613.5" x="10" y="257.0762"/><text fill="#000000" font-family="sans-serif" font-size="13" font-weight="bold" lengthAdjust="spacing" textLength="16" x="25" y="272.1045">alt</text><text fill="#000000" font-family="sans-serif" font-size="11" font-weight="bold" lengthAdjust="spacing" textLength="106" x="86" y="270.9463">[Acci&#243;n disponible]</text><polygon fill="#181818" points="63,295.6582,53,299.6582,63,303.6582,59,299.6582" style="stroke:#181818;stroke-width:1.0;"/><line style="stroke:#181818;stroke-width:1.0;stroke-dasharray:2.0,2.0;" x1="57" x2="257" y1="299.6582" y2="299.6582"/><text fill="#000000" font-family="sans-serif" font-size="13" lengthAdjust="spacing" textLength="182" x="69" y="294.3955">Acci&#243;n disponible para comprar</text><polygon fill="#181818" points="246,326.9492,256,330.9492,246,334.9492,250,330.9492" style="stroke:#181818;stroke-width:1.0;"/><line style="stroke:#181818;stroke-width:1.0;" x1="52" x2="252" y1="330.9492" y2="330.9492"/><text fill="#000000" font-family="sans-serif" font-size="13" lengthAdjust="spacing" textLength="175" x="59" y="325.6865">Ingresar cantidad para compra</text><polygon fill="#181818" points="524,358.2402,534,362.2402,524,366.2402,528,362.2402" style="stroke:#181818;stroke-width:1.0;"/><line style="stroke:#181818;stroke-width:1.0;" x1="268" x2="530" y1="362.2402" y2="362.2402"/><text fill="#000000" font-family="sans-serif" font-size="13" lengthAdjust="spacing" textLength="174" x="275" y="356.9775">Realizar verificaci&#243;n de fondos</text><polygon fill="#181818" points="279,389.5313,269,393.5313,279,397.5313,275,393.5313" style="stroke:#181818;stroke-width:1.0;"/><line style="stroke:#181818;stroke-width:1.0;stroke-dasharray:2.0,2.0;" x1="273" x2="535" y1="393.5313" y2="393.5313"/><text fill="#000000" font-family="sans-serif" font-size="13" lengthAdjust="spacing" textLength="109" x="285" y="388.2686">Fondos suficientes</text><polygon fill="#181818" points="524,420.8223,534,424.8223,524,428.8223,528,424.8223" style="stroke:#181818;stroke-width:1.0;"/><line style="stroke:#181818;stroke-width:1.0;" x1="268" x2="530" y1="424.8223" y2="424.8223"/><text fill="#000000" font-family="sans-serif" font-size="13" lengthAdjust="spacing" textLength="172" x="275" y="419.5596">Confirma compra de la acci&#243;n</text><polygon fill="#181818" points="279,452.1133,269,456.1133,279,460.1133,275,456.1133" style="stroke:#181818;stroke-width:1.0;"/><line style="stroke:#181818;stroke-width:1.0;stroke-dasharray:2.0,2.0;" x1="273" x2="535" y1="456.1133" y2="456.1133"/><text fill="#000000" font-family="sans-serif" font-size="13" lengthAdjust="spacing" textLength="181" x="285" y="450.8506">Transacci&#243;n de compra exitosa</text><polygon fill="#181818" points="63,483.4043,53,487.4043,63,491.4043,59,487.4043" style="stroke:#181818;stroke-width:1.0;"/><line style="stroke:#181818;stroke-width:1.0;stroke-dasharray:2.0,2.0;" x1="57" x2="257" y1="487.4043" y2="487.4043"/><text fill="#000000" font-family="sans-serif" font-size="13" lengthAdjust="spacing" textLength="140" x="69" y="482.1416">Confirmaci&#243;n de compra</text><line style="stroke:#000000;stroke-width:1.0;stroke-dasharray:2.0,2.0;" x1="10" x2="623.5" y1="496.4043" y2="496.4043"/><text fill="#000000" font-family="sans-serif" font-size="11" font-weight="bold" lengthAdjust="spacing" textLength="123" x="15" y="508.2744">[Acci&#243;n no disponible]</text><polygon fill="#181818" points="63,531.3262,53,535.3262,63,539.3262,59,535.3262" style="stroke:#181818;stroke-width:1.0;"/><line style="stroke:#181818;stroke-width:1.0;stroke-dasharray:2.0,2.0;" x1="57" x2="257" y1="535.3262" y2="535.3262"/><text fill="#000000" font-family="sans-serif" font-size="13" lengthAdjust="spacing" textLength="120" x="69" y="530.0635">Acci&#243;n no disponible</text><!--SRC=[bL9BJiCm4Dtd52FslK0NI0Y4r1sYS831dg2H73lok1NgjJW25sFYslceQH7PU6BF-_YDqQGGuLqE63aqFSR4Xdlq2UvsFb5iyGGlGLA7_WvGQhtitBCawX0imOCn73n9Rgu_JOCcyH4JZKfbXSrzfTp2dXnb10Bg-lFjGMKGJEZwY74YgIQQKWmiLKjfWbDdQR2Jq3cImPURE6MKiJXnZbvh0PkvjwTLhhySd9tVqbzNUmo-vTZX6Q1moz87pn_isABLF5tAUlcud3bgGB_HaHAMbBShlSjeCt9j9Zl_6KamWj593zfpt59ldi0heUEJmeuKkMKptQGDtWR9oFMxF-S6a8F2cFGDIdDTfmQrclGDaRU8Nkf055JWzCKf25xFyM8m9GXoGcF8Flnh9ijsyZfUIvVlShPNt_zigx3-0W00]--></g></svg>