<?xml version="1.0" encoding="us-ascii" standalone="no"?><svg xmlns="http://www.w3.org/2000/svg" xmlns:xlink="http://www.w3.org/1999/xlink" contentStyleType="text/css" height="252px" preserveAspectRatio="none" style="width:537px;height:252px;background:#FFFFFF;" version="1.1" viewBox="0 0 537 252" width="537px" zoomAndPan="magnify"><defs/><g><!--class Consumer--><g id="elem_Consumer"><rect codeLine="6" fill="#FFFFFF" height="95.0439" id="Consumer" rx="2.5" ry="2.5" style="stroke:#000000;stroke-width:1.0;" width="167" x="76" y="12"/><ellipse cx="119.75" cy="26" fill="#FFFFFF" rx="9" ry="9" style="stroke:#000000;stroke-width:1.0;"/><path d="M122.5156,21.875 Q122.6719,21.6563 122.8594,21.5469 Q123.0469,21.4375 123.2656,21.4375 Q123.6406,21.4375 123.875,21.7031 Q124.1094,21.9531 124.1094,22.5625 L124.1094,24.0156 Q124.1094,24.625 123.875,24.8906 Q123.6406,25.1563 123.2656,25.1563 Q122.9219,25.1563 122.7188,24.9531 Q122.5156,24.7656 122.4063,24.25 Q122.3594,23.8906 122.1719,23.7031 Q121.8438,23.3281 121.2344,23.1094 Q120.625,22.8906 120,22.8906 Q119.2344,22.8906 118.5938,23.2188 Q117.9688,23.5469 117.4688,24.2969 Q116.9844,25.0469 116.9844,26.0781 L116.9844,27.1719 Q116.9844,28.4063 117.875,29.2344 Q118.7656,30.0469 120.3594,30.0469 Q121.2969,30.0469 121.9531,29.7969 Q122.3438,29.6406 122.7656,29.2031 Q123.0313,28.9375 123.1719,28.8594 Q123.3281,28.7813 123.5313,28.7813 Q123.8594,28.7813 124.1094,29.0469 Q124.375,29.2969 124.375,29.6406 Q124.375,29.9844 124.0313,30.3906 Q123.5313,30.9688 122.7344,31.2969 Q121.6563,31.75 120.3594,31.75 Q118.8438,31.75 117.6406,31.125 Q116.6563,30.625 115.9688,29.5625 Q115.2813,28.4844 115.2813,27.2031 L115.2813,26.0469 Q115.2813,24.7188 115.8906,23.5781 Q116.5156,22.4219 117.6094,21.8125 Q118.7031,21.1875 119.9375,21.1875 Q120.6719,21.1875 121.3125,21.3594 Q121.9688,21.5156 122.5156,21.875 Z " fill="#000000"/><text fill="#000000" font-family="Verdana" font-size="14" lengthAdjust="spacing" textLength="72" x="137.25" y="31.5679">Consumer</text><line style="stroke:#000000;stroke-width:1.0;" x1="77" x2="242" y1="40" y2="40"/><line style="stroke:#000000;stroke-width:1.0;" x1="77" x2="242" y1="48" y2="48"/><ellipse cx="87" cy="62.0073" fill="#FFFFFF" rx="3" ry="3" style="stroke:#000000;stroke-width:1.0;"/><text fill="#000000" font-family="Verdana" font-size="14" lengthAdjust="spacing" textLength="90" x="94" y="66.0752">Consumer():</text><rect fill="#FFFFFF" height="6" style="stroke:#000000;stroke-width:1.0;" width="6" x="84" y="76.022"/><text fill="#000000" font-family="Verdana" font-size="14" lengthAdjust="spacing" textLength="122" x="94" y="83.0898">makeSlow(): void</text><ellipse cx="87" cy="96.0366" fill="#FFFFFF" rx="3" ry="3" style="stroke:#000000;stroke-width:1.0;"/><text fill="#000000" font-family="Verdana" font-size="14" lengthAdjust="spacing" textLength="143" x="94" y="100.1045">receive(String): void</text></g><!--class MiAgenteFinancieroApplication--><g id="elem_MiAgenteFinancieroApplication"><rect codeLine="11" fill="#FFFFFF" height="78.0293" id="MiAgenteFinancieroApplication" rx="2.5" ry="2.5" style="stroke:#000000;stroke-width:1.0;" width="252" x="278.5" y="20.5"/><ellipse cx="297.8" cy="34.5" fill="#FFFFFF" rx="9" ry="9" style="stroke:#000000;stroke-width:1.0;"/><path d="M300.5656,30.375 Q300.7219,30.1563 300.9094,30.0469 Q301.0969,29.9375 301.3156,29.9375 Q301.6906,29.9375 301.925,30.2031 Q302.1594,30.4531 302.1594,31.0625 L302.1594,32.5156 Q302.1594,33.125 301.925,33.3906 Q301.6906,33.6563 301.3156,33.6563 Q300.9719,33.6563 300.7688,33.4531 Q300.5656,33.2656 300.4563,32.75 Q300.4094,32.3906 300.2219,32.2031 Q299.8938,31.8281 299.2844,31.6094 Q298.675,31.3906 298.05,31.3906 Q297.2844,31.3906 296.6438,31.7188 Q296.0188,32.0469 295.5188,32.7969 Q295.0344,33.5469 295.0344,34.5781 L295.0344,35.6719 Q295.0344,36.9063 295.925,37.7344 Q296.8156,38.5469 298.4094,38.5469 Q299.3469,38.5469 300.0031,38.2969 Q300.3938,38.1406 300.8156,37.7031 Q301.0813,37.4375 301.2219,37.3594 Q301.3781,37.2813 301.5813,37.2813 Q301.9094,37.2813 302.1594,37.5469 Q302.425,37.7969 302.425,38.1406 Q302.425,38.4844 302.0813,38.8906 Q301.5813,39.4688 300.7844,39.7969 Q299.7063,40.25 298.4094,40.25 Q296.8938,40.25 295.6906,39.625 Q294.7063,39.125 294.0188,38.0625 Q293.3313,36.9844 293.3313,35.7031 L293.3313,34.5469 Q293.3313,33.2188 293.9406,32.0781 Q294.5656,30.9219 295.6594,30.3125 Q296.7531,29.6875 297.9875,29.6875 Q298.7219,29.6875 299.3625,29.8594 Q300.0188,30.0156 300.5656,30.375 Z " fill="#000000"/><text fill="#000000" font-family="Verdana" font-size="14" lengthAdjust="spacing" textLength="210" x="311.2" y="40.0679">MiAgenteFinancieroApplication</text><line style="stroke:#000000;stroke-width:1.0;" x1="279.5" x2="529.5" y1="48.5" y2="48.5"/><line style="stroke:#000000;stroke-width:1.0;" x1="279.5" x2="529.5" y1="56.5" y2="56.5"/><ellipse cx="289.5" cy="70.5073" fill="#FFFFFF" rx="3" ry="3" style="stroke:#000000;stroke-width:1.0;"/><text fill="#000000" font-family="Verdana" font-size="14" lengthAdjust="spacing" textLength="228" x="296.5" y="74.5752">MiAgenteFinancieroApplication():</text><ellipse cx="289.5" cy="87.522" fill="#FFFFFF" rx="3" ry="3" style="stroke:#000000;stroke-width:1.0;"/><text fill="#000000" font-family="Verdana" font-size="14" lengthAdjust="spacing" textLength="140" x="296.5" y="91.5898">main(String[]): void</text></g><!--class MiAgenteFinancieroApplicationTests--><g id="elem_MiAgenteFinancieroApplicationTests"><rect codeLine="15" fill="#FFFFFF" height="78.0293" id="MiAgenteFinancieroApplicationTests" rx="2.5" ry="2.5" style="stroke:#000000;stroke-width:1.0;" width="291" x="14" y="167"/><ellipse cx="33.3" cy="181" fill="#FFFFFF" rx="9" ry="9" style="stroke:#000000;stroke-width:1.0;"/><path d="M36.0656,176.875 Q36.2219,176.6563 36.4094,176.5469 Q36.5969,176.4375 36.8156,176.4375 Q37.1906,176.4375 37.425,176.7031 Q37.6594,176.9531 37.6594,177.5625 L37.6594,179.0156 Q37.6594,179.625 37.425,179.8906 Q37.1906,180.1563 36.8156,180.1563 Q36.4719,180.1563 36.2688,179.9531 Q36.0656,179.7656 35.9563,179.25 Q35.9094,178.8906 35.7219,178.7031 Q35.3938,178.3281 34.7844,178.1094 Q34.175,177.8906 33.55,177.8906 Q32.7844,177.8906 32.1438,178.2188 Q31.5187,178.5469 31.0187,179.2969 Q30.5344,180.0469 30.5344,181.0781 L30.5344,182.1719 Q30.5344,183.4063 31.425,184.2344 Q32.3156,185.0469 33.9094,185.0469 Q34.8469,185.0469 35.5031,184.7969 Q35.8938,184.6406 36.3156,184.2031 Q36.5813,183.9375 36.7219,183.8594 Q36.8781,183.7813 37.0813,183.7813 Q37.4094,183.7813 37.6594,184.0469 Q37.925,184.2969 37.925,184.6406 Q37.925,184.9844 37.5813,185.3906 Q37.0813,185.9688 36.2844,186.2969 Q35.2063,186.75 33.9094,186.75 Q32.3938,186.75 31.1906,186.125 Q30.2062,185.625 29.5187,184.5625 Q28.8312,183.4844 28.8312,182.2031 L28.8312,181.0469 Q28.8312,179.7188 29.4406,178.5781 Q30.0656,177.4219 31.1594,176.8125 Q32.2531,176.1875 33.4875,176.1875 Q34.2219,176.1875 34.8625,176.3594 Q35.5188,176.5156 36.0656,176.875 Z " fill="#000000"/><text fill="#000000" font-family="Verdana" font-size="14" lengthAdjust="spacing" textLength="249" x="46.7" y="186.5679">MiAgenteFinancieroApplicationTests</text><line style="stroke:#000000;stroke-width:1.0;" x1="15" x2="304" y1="195" y2="195"/><line style="stroke:#000000;stroke-width:1.0;" x1="15" x2="304" y1="203" y2="203"/><polygon fill="#FFFFFF" points="25,213.0073,21,219.0073,29,219.0073" style="stroke:#000000;stroke-width:1.0;"/><text fill="#000000" font-family="Verdana" font-size="14" lengthAdjust="spacing" textLength="267" x="32" y="221.0752">MiAgenteFinancieroApplicationTests():</text><polygon fill="#FFFFFF" points="25,230.022,21,236.022,29,236.022" style="stroke:#000000;stroke-width:1.0;"/><text fill="#000000" font-family="Verdana" font-size="14" lengthAdjust="spacing" textLength="148" x="32" y="238.0898">contextLoads(): void</text></g><!--SRC=[bSwn2W8n30RWlKyHjnFn1Tn4SD99Dt6elQ31DYbjF1NHP_VkgBg9Zab-_Yy3FM10YDuI6vK8Ah0JLGbGKqAd96poaJZQP0DuOjHhH92a1p76UPipp8JpAM22cm4OlSTgE85sCOPWZxZoSkuMZL3Tfzfof0QhbIRY_UjoBvLBckwH5UV4bXrXaccCdfpj7YhErqp1HorEN93DzYzcZLbpRpr-21Rm0KxQt4KNOkjSVS0d]--></g></svg>