<?xml version="1.0" encoding="us-ascii" standalone="no"?><svg xmlns="http://www.w3.org/2000/svg" xmlns:xlink="http://www.w3.org/1999/xlink" contentStyleType="text/css" height="643px" preserveAspectRatio="none" style="width:649px;height:643px;background:#FFFFFF;" version="1.1" viewBox="0 0 649 643" width="649px" zoomAndPan="magnify"><defs/><g><rect fill="#FFFFFF" height="456.7051" style="stroke:#181818;stroke-width:1.0;" width="10" x="42" y="93.6211"/><rect fill="#FFFFFF" height="433.4141" style="stroke:#181818;stroke-width:1.0;" width="10" x="266" y="116.9121"/><rect fill="#FFFFFF" height="402.123" style="stroke:#181818;stroke-width:1.0;" width="10" x="555" y="148.2031"/><rect fill="none" height="286.25" style="stroke:#000000;stroke-width:1.5;" width="632.5" x="10" y="257.0762"/><line style="stroke:#181818;stroke-width:0.5;stroke-dasharray:5.0,5.0;" x1="47" x2="47" y1="83.6211" y2="560.3262"/><line style="stroke:#181818;stroke-width:0.5;stroke-dasharray:5.0,5.0;" x1="270.5" x2="270.5" y1="83.6211" y2="560.3262"/><line style="stroke:#181818;stroke-width:0.5;stroke-dasharray:5.0,5.0;" x1="559.5" x2="559.5" y1="83.6211" y2="560.3262"/><text fill="#000000" font-family="sans-serif" font-size="14" lengthAdjust="spacing" textLength="48" x="20" y="80.1074">Usuario</text><ellipse cx="47" cy="13.5" fill="#E2E2F0" rx="8" ry="8" style="stroke:#181818;stroke-width:0.5;"/><path d="M47,21.5 L47,48.5 M34,29.5 L60,29.5 M47,48.5 L34,63.5 M47,48.5 L60,63.5 " fill="none" style="stroke:#181818;stroke-width:0.5;"/><text fill="#000000" font-family="sans-serif" font-size="14" lengthAdjust="spacing" textLength="48" x="20" y="574.4336">Usuario</text><ellipse cx="47" cy="586.4473" fill="#E2E2F0" rx="8" ry="8" style="stroke:#181818;stroke-width:0.5;"/><path d="M47,594.4473 L47,621.4473 M34,602.4473 L60,602.4473 M47,621.4473 L34,636.4473 M47,621.4473 L60,636.4473 " fill="none" style="stroke:#181818;stroke-width:0.5;"/><rect fill="#E2E2F0" height="32.6211" rx="2.5" ry="2.5" style="stroke:#181818;stroke-width:0.5;" width="119" x="211.5" y="50"/><text fill="#000000" font-family="sans-serif" font-size="14" lengthAdjust="spacing" textLength="105" x="218.5" y="72.1074">Interfaz Postman</text><rect fill="#E2E2F0" height="32.6211" rx="2.5" ry="2.5" style="stroke:#181818;stroke-width:0.5;" width="119" x="211.5" y="559.3262"/><text fill="#000000" font-family="sans-serif" font-size="14" lengthAdjust="spacing" textLength="105" x="218.5" y="581.4336">Interfaz Postman</text><rect fill="#E2E2F0" height="32.6211" rx="2.5" ry="2.5" style="stroke:#181818;stroke-width:0.5;" width="145" x="487.5" y="50"/><text fill="#000000" font-family="sans-serif" font-size="14" lengthAdjust="spacing" textLength="131" x="494.5" y="72.1074">Sistema de Acciones</text><rect fill="#E2E2F0" height="32.6211" rx="2.5" ry="2.5" style="stroke:#181818;stroke-width:0.5;" width="145" x="487.5" y="559.3262"/><text fill="#000000" font-family="sans-serif" font-size="14" lengthAdjust="spacing" textLength="131" x="494.5" y="581.4336">Sistema de Acciones</text><rect fill="#FFFFFF" height="456.7051" style="stroke:#181818;stroke-width:1.0;" width="10" x="42" y="93.6211"/><rect fill="#FFFFFF" height="433.4141" style="stroke:#181818;stroke-width:1.0;" width="10" x="266" y="116.9121"/><rect fill="#FFFFFF" height="402.123" style="stroke:#181818;stroke-width:1.0;" width="10" x="555" y="148.2031"/><polygon fill="#181818" points="254,112.9121,264,116.9121,254,120.9121,258,116.9121" style="stroke:#181818;stroke-width:1.0;"/><line style="stroke:#181818;stroke-width:1.0;" x1="52" x2="260" y1="116.9121" y2="116.9121"/><text fill="#000000" font-family="sans-serif" font-size="13" lengthAdjust="spacing" textLength="176" x="59" y="111.6494">Selecciona acci&#243;n para vender</text><polygon fill="#181818" points="543,144.2031,553,148.2031,543,152.2031,547,148.2031" style="stroke:#181818;stroke-width:1.0;"/><line style="stroke:#181818;stroke-width:1.0;" x1="276" x2="549" y1="148.2031" y2="148.2031"/><text fill="#000000" font-family="sans-serif" font-size="13" lengthAdjust="spacing" textLength="246" x="283" y="142.9404">Solicita detalles de la acci&#243;n seleccionada</text><polygon fill="#181818" points="287,175.4941,277,179.4941,287,183.4941,283,179.4941" style="stroke:#181818;stroke-width:1.0;"/><line style="stroke:#181818;stroke-width:1.0;stroke-dasharray:2.0,2.0;" x1="281" x2="554" y1="179.4941" y2="179.4941"/><text fill="#000000" font-family="sans-serif" font-size="13" lengthAdjust="spacing" textLength="121" x="293" y="174.2314">Detalles de la acci&#243;n</text><polygon fill="#181818" points="543,206.7852,553,210.7852,543,214.7852,547,210.7852" style="stroke:#181818;stroke-width:1.0;"/><line style="stroke:#181818;stroke-width:1.0;" x1="276" x2="549" y1="210.7852" y2="210.7852"/><text fill="#000000" font-family="sans-serif" font-size="13" lengthAdjust="spacing" textLength="231" x="283" y="205.5225">Solicita venta de la acci&#243;n seleccionada</text><polygon fill="#181818" points="287,238.0762,277,242.0762,287,246.0762,283,242.0762" style="stroke:#181818;stroke-width:1.0;"/><line style="stroke:#181818;stroke-width:1.0;stroke-dasharray:2.0,2.0;" x1="281" x2="554" y1="242.0762" y2="242.0762"/><text fill="#000000" font-family="sans-serif" font-size="13" lengthAdjust="spacing" textLength="175" x="293" y="236.8135">Confirmaci&#243;n de disponibilidad</text><path d="M10,257.0762 L71,257.0762 L71,266.3672 L61,276.3672 L10,276.3672 L10,257.0762 " fill="#EEEEEE" style="stroke:#000000;stroke-width:1.5;"/><rect fill="none" height="286.25" style="stroke:#000000;stroke-width:1.5;" width="632.5" x="10" y="257.0762"/><text fill="#000000" font-family="sans-serif" font-size="13" font-weight="bold" lengthAdjust="spacing" textLength="16" x="25" y="272.1045">alt</text><text fill="#000000" font-family="sans-serif" font-size="11" font-weight="bold" lengthAdjust="spacing" textLength="175" x="86" y="270.9463">[Acci&#243;n disponible para vender]</text><polygon fill="#181818" points="63,295.6582,53,299.6582,63,303.6582,59,299.6582" style="stroke:#181818;stroke-width:1.0;"/><line style="stroke:#181818;stroke-width:1.0;stroke-dasharray:2.0,2.0;" x1="57" x2="265" y1="299.6582" y2="299.6582"/><text fill="#000000" font-family="sans-serif" font-size="13" lengthAdjust="spacing" textLength="172" x="69" y="294.3955">Acci&#243;n disponible para vender</text><polygon fill="#181818" points="254,326.9492,264,330.9492,254,334.9492,258,330.9492" style="stroke:#181818;stroke-width:1.0;"/><line style="stroke:#181818;stroke-width:1.0;" x1="52" x2="260" y1="330.9492" y2="330.9492"/><text fill="#000000" font-family="sans-serif" font-size="13" lengthAdjust="spacing" textLength="162" x="59" y="325.6865">Ingresar cantidad para venta</text><polygon fill="#181818" points="543,358.2402,553,362.2402,543,366.2402,547,362.2402" style="stroke:#181818;stroke-width:1.0;"/><line style="stroke:#181818;stroke-width:1.0;" x1="276" x2="549" y1="362.2402" y2="362.2402"/><text fill="#000000" font-family="sans-serif" font-size="13" lengthAdjust="spacing" textLength="255" x="283" y="356.9775">Verificar disponibilidad de acciones a vender</text><polygon fill="#181818" points="287,389.5313,277,393.5313,287,397.5313,283,393.5313" style="stroke:#181818;stroke-width:1.0;"/><line style="stroke:#181818;stroke-width:1.0;stroke-dasharray:2.0,2.0;" x1="281" x2="554" y1="393.5313" y2="393.5313"/><text fill="#000000" font-family="sans-serif" font-size="13" lengthAdjust="spacing" textLength="193" x="293" y="388.2686">Acciones disponibles para vender</text><polygon fill="#181818" points="543,420.8223,553,424.8223,543,428.8223,547,424.8223" style="stroke:#181818;stroke-width:1.0;"/><line style="stroke:#181818;stroke-width:1.0;" x1="276" x2="549" y1="424.8223" y2="424.8223"/><text fill="#000000" font-family="sans-serif" font-size="13" lengthAdjust="spacing" textLength="172" x="283" y="419.5596">Solicita confirmaci&#243;n de venta</text><polygon fill="#181818" points="287,452.1133,277,456.1133,287,460.1133,283,456.1133" style="stroke:#181818;stroke-width:1.0;"/><line style="stroke:#181818;stroke-width:1.0;stroke-dasharray:2.0,2.0;" x1="281" x2="554" y1="456.1133" y2="456.1133"/><text fill="#000000" font-family="sans-serif" font-size="13" lengthAdjust="spacing" textLength="173" x="293" y="450.8506">Confirmaci&#243;n de venta exitosa</text><polygon fill="#181818" points="63,483.4043,53,487.4043,63,491.4043,59,487.4043" style="stroke:#181818;stroke-width:1.0;"/><line style="stroke:#181818;stroke-width:1.0;stroke-dasharray:2.0,2.0;" x1="57" x2="265" y1="487.4043" y2="487.4043"/><text fill="#000000" font-family="sans-serif" font-size="13" lengthAdjust="spacing" textLength="183" x="69" y="482.1416">Confirmaci&#243;n de venta realizada</text><line style="stroke:#000000;stroke-width:1.0;stroke-dasharray:2.0,2.0;" x1="10" x2="642.5" y1="496.4043" y2="496.4043"/><text fill="#000000" font-family="sans-serif" font-size="11" font-weight="bold" lengthAdjust="spacing" textLength="192" x="15" y="508.2744">[Acci&#243;n no disponible para vender]</text><polygon fill="#181818" points="63,531.3262,53,535.3262,63,539.3262,59,535.3262" style="stroke:#181818;stroke-width:1.0;"/><line style="stroke:#181818;stroke-width:1.0;stroke-dasharray:2.0,2.0;" x1="57" x2="265" y1="535.3262" y2="535.3262"/><text fill="#000000" font-family="sans-serif" font-size="13" lengthAdjust="spacing" textLength="190" x="69" y="530.0635">Acci&#243;n no disponible para vender</text><!--SRC=[dLDBRiCW4DrpYb7skK0MbQfsarsbgDrFOLoDX262QLJbMZr2BrOW1jkDtLJrmiR0-_2UZLfyWEVuZe6zEc8Grdn49x3PEw7GuHcUV9GUtGOmrl5yvu6ZK8zW2EwrPkyebitrHIdKmYSKQah34xPtbN871x9K40YOdb-V3f8CmecSeJ1oL0zg66IIAfLOl4t69BiHj9PYjcL7ojXK38wSpMeTm7PgxN6HwvQ3PBpuM9LV5dlmhkFGumMGu8RZqJj-PSi6JKhJIf4hoyEQfLbOaAvcBf4FUUzkuGfmgPozUmiKCO1EbMSR3IOuLvj6yKA1EzO9DZz3FXNMmyzCBqVIPaVRyThtxstedx6Etl_OmwLF-c3n4TSZNi45GildN3lPIAq8v__TuJeqtPKoTFrvJ-RgRpIP6XI-0G00]--></g></svg>